
<svg width="37px" height="24px" viewBox="0 0 37 24" version="1.1" xmlns="http://www.w3.org/2000/svg" xmlns:xlink="http://www.w3.org/1999/xlink">
    <!-- Generator: Sketch 44 (41411) - http://www.bohemiancoding.com/sketch -->
    <desc>Created with Sketch.</desc>
    <defs></defs>
    <g id="Desktop-Design" stroke="none" stroke-width="1" fill="none" fill-rule="evenodd">
        <g id="1.02-desktop-homepage-over-ray-A" transform="translate(-622.000000, -533.000000)" fill="#FFFFFF">
            <g id="arrow" transform="translate(623.000000, 534.000000)">
                <path d="M3.27081576,5.90528619 L17.6608681,22.3655511 C18.400474,23.211483 19.599526,23.211483 20.3391319,22.3655511 L34.7291842,5.90528619 C36.948002,3.36728748 36.1865469,2.28760319 33.0284173,3.49370043 L19,8.85113406 L4.97158269,3.49370043 C1.8134531,2.28760319 1.05199796,3.36728748 3.27081576,5.90528619" id="Fill-1-Copy"></path>
                <path d="M1.27081576,2.90528619 L15.6608681,19.3655511 C16.400474,20.211483 17.599526,20.211483 18.3391319,19.3655511 L32.7291842,2.90528619 C34.948002,0.367287482 34.1865469,-0.712396809 31.0284173,0.493700433 L17,5.85113406 L2.97158269,0.493700433 C-0.186546895,-0.712396809 -0.948002036,0.367287482 1.27081576,2.90528619" id="Fill-1" stroke="#2D2D2D" stroke-width="2"></path>
            </g>
        </g>
    </g>
</svg>