
<svg width="238px" height="228px" viewBox="0 0 238 228" version="1.1" xmlns="http://www.w3.org/2000/svg" xmlns:xlink="http://www.w3.org/1999/xlink">

    <defs>
        <polygon id="path-1" points="0.258181484 0.385553236 217.60982 0.385553236 217.60982 227.524008 0.258181484 227.524008 0.258181484 0.385553236"></polygon>
    </defs>
    <g id="Desktop-Design" stroke="none" stroke-width="1" fill="none" fill-rule="evenodd">
        <g id="1.01-desktop-homepage" transform="translate(-899.000000, -1461.000000)">
            <g id="Page-1" transform="translate(899.000000, 1461.000000)">
                <path d="M106.363057,126.638197 C106.363057,126.638197 133.327981,136.833462 149.581001,140.024034 C165.834021,143.214606 215.008153,143.083709 218.521033,148.252978 C222.033913,153.422723 222.001545,160.574974 197.725545,159.154139 C173.449545,157.7314 110.380973,133.850423 110.380973,133.850423 L104.668973,131.581846" id="Fill-1" fill="#CAA177"></path>
                <path d="M168.755852,140.757585 C168.755852,144.401301 165.922224,147.354829 162.427432,147.354829 C158.931212,147.354829 156.099012,144.401301 156.099012,140.757585 C156.099012,137.113869 158.931212,134.160341 162.427432,134.160341 C165.922224,134.160341 168.755852,137.113869 168.755852,140.757585" id="Fill-3" fill="#FFFFFF"></path>
                <path d="M55.8200916,43.8822413 C55.6991876,43.7151683 66.6338596,35.9869678 66.6338596,35.9869678 C66.6338596,35.9869678 69.0176676,45.5068008 71.6361436,45.1498071 C74.2541436,44.7928134 83.2848156,34.3209971 83.2848156,34.3209971 L99.8396196,46.8157779 L89.4866196,58.4775733 C89.4866196,58.4775733 88.1590556,64.5064835 85.3125756,65.4784585 C82.4651436,66.4504334 73.4211436,63.4754856 73.4211436,63.4754856 C73.4211436,63.4754856 63.7830956,59.3105587 62.9496196,57.52559 C62.1161436,55.7406213 55.8200916,43.8822413 55.8200916,43.8822413" id="Fill-5" fill="#F8DFCB"></path>
                <path d="M65.9561784,42.8517194 L74.6431784,39.0437862 C74.6431784,39.0437862 70.2397024,55.1085044 72.6201784,54.7515106 C75.0001784,54.3945169 78.4654584,51.1815733 78.4654584,51.1815733 L86.3056544,52.9541662 L86.3056544,55.2275023 L80.1795344,52.9541662 C80.1795344,52.9541662 76.9046544,58.321448 77.1421784,58.9164376 C77.3801784,59.5114271 84.5206544,61.1773979 84.5206544,61.1773979 C84.5206544,61.1773979 79.4683904,63.6373228 77.8290464,63.1808468 C76.1901784,62.7243708 72.2631784,60.3444125 72.2631784,60.3444125 C72.2631784,60.3444125 64.5281784,49.8725962 64.5281784,48.5636192 C64.5281784,47.2546422 65.9561784,42.8517194 65.9561784,42.8517194" id="Fill-7" fill="#CAA177"></path>
                <path d="M21.9796808,28.7200985 C1.4298088,37.6882572 10.8336648,57.5966079 8.3370448,69.1294096 C5.8404248,80.6622113 -1.5494752,96.1038564 0.2912168,112.822587 C2.1319088,129.541318 7.0461328,144.67452 7.0461328,144.67452 L4.5752168,151.422654 L10.1301368,160.212316 C10.1301368,160.212316 3.8583608,166.860015 5.8513728,181.898495 C7.8439088,196.936499 7.2027368,227.098662 17.6699768,223.330712 C28.1372168,219.563714 72.3228688,199.08703 71.0329088,189.208299 C69.7429488,179.329568 69.0832128,151.148007 69.0832128,151.148007 C69.0832128,151.148007 74.3744288,135.609259 73.9250848,127.607364 C73.4762168,119.605468 97.0739168,98.8726998 97.0739168,98.8726998 L95.3993488,76.0945954 L94.5163688,64.7231549 L79.9017408,58.8970171 C79.9017408,58.8970171 66.7227288,55.8130672 62.6024728,54.687347 C58.4822168,53.5616267 53.9987728,44.0075223 53.9987728,44.0075223 C53.9987728,44.0075223 40.4551448,20.657276 21.9796808,28.7200985" id="Fill-9" fill="#EB3F4A"></path>
                <path d="M77.9965508,32.0390455 C77.9965508,32.0390455 70.6913788,40.8225194 66.2288788,41.1761812 C61.7663788,41.529843 56.9468788,33.6759808 59.9813788,21.8951875 C63.0158788,10.1143942 76.0616108,-0.535443006 85.9609828,1.30854864 C95.8594028,3.15301628 106.093879,21.1554965 106.212403,26.6103608 C106.330927,32.0652251 102.300635,36.6442647 102.300635,36.6442647 C102.300635,36.6442647 104.640651,53.0664526 101.214403,52.9536426 C97.7881548,52.8403566 77.9965508,32.0390455 77.9965508,32.0390455" id="Fill-11" fill="#EB3F4A"></path>
                <path d="M35.6111784,57.3099658 C44.6218584,52.1625921 54.4750584,59.0949344 54.4750584,59.0949344 L81.3076544,96.5212058 L81.9031304,99.078233 L90.7681544,98.1395775 L98.0866544,117.998901 L94.8736544,123.711277 L81.8931344,107.467586 L72.3821784,101.220195 L57.5595384,90.867377 C57.5595384,90.867377 38.8241784,74.5051641 37.2176784,72.2442038 C35.6111784,69.9832434 32.0111904,59.3667257 35.6111784,57.3099658" id="Fill-13" fill="#F8DFCB"></path>
                <path d="M28.7710584,145.722035 C29.8134984,148.8374 30.6579224,152.139354 31.5128184,155.431789 C27.2421464,155.308031 22.8210584,145.730603 28.7710584,145.722035" id="Fill-15" fill="#000000"></path>
                <path d="M35.2828336,164.81982 C44.7119176,164.446166 53.8558776,171.654108 56.8741936,178.415093 C49.2510536,174.426759 45.3121536,167.187878 35.2828336,164.81982" id="Fill-17" fill="#000000"></path>
                <path d="M43.165346,172.912106 C48.227606,176.438728 51.93279,181.247196 55.845986,185.858603 C49.847434,184.487747 45.785726,178.547371 43.165346,172.912106" id="Fill-19" fill="#000000"></path>
                <path d="M47.620944,114.000143 C51.174284,117.35874 51.98872,124.946523 53.447184,129.213788 C50.160404,128.757788 50.089956,125.263057 49.33502,122.416151 C48.48536,122.928794 49.1946,124.680443 49.33502,125.328744 C47.366284,123.182498 46.052048,117.3754 47.620944,114.000143" id="Fill-21" fill="#000000"></path>
                <path d="M50.7056144,63.1807992 C54.2670464,65.9167992 57.6418864,70.3616092 58.2449784,74.8335507 C54.1661344,72.6330413 51.5881184,67.3247825 50.7056144,63.1807992" id="Fill-23" fill="#000000"></path>
                <path d="M57.5597764,98.1393395 C61.2816204,108.272726 64.9177844,121.758997 68.8695364,129.537177 C60.7085164,123.63726 57.6635444,109.494596 57.5597764,98.1393395" id="Fill-25" fill="#000000"></path>
                <path d="M66.8131212,27.5752434 C77.6178452,28.7299992 64.3736212,39.1903916 66.8131212,27.5752434" id="Fill-27" fill="#000000"></path>
                <path d="M80.86407,38.2567816 C81.32579,40.4358714 81.993618,43.6959382 81.893182,45.3776167 C81.251534,45.6360802 80.63797,45.9188192 79.836386,46.0254413 C78.596406,43.1328401 75.52811,38.8717628 80.86407,38.2567816" id="Fill-29" fill="#000000"></path>
                <path d="M78.465506,70.625737 C81.161094,75.0938706 80.541818,82.6911733 81.893182,88.4287766 C77.976178,85.955048 78.558802,76.7122422 78.465506,70.625737" id="Fill-31" fill="#000000"></path>
                <g id="Group-35" transform="translate(1.904000, 0.090438)">
                    <mask id="mask-2" fill="white">
                        <use xlink:href="#path-1"></use>
                    </mask>
                    <g id="Clip-34"></g>
                    <path d="M161.556828,136.568668 C157.2476,136.47823 154.635788,139.381303 156.07188,144.012701 C159.881784,156.29281 175.196608,136.853311 161.556828,136.568668 M97.4667596,97.4016952 C95.3780716,92.622739 86.0998796,93.13681 81.3603476,95.1359749 C81.7211556,96.0817704 80.6377796,98.1575699 81.3603476,97.4016952 C87.2127676,94.7970689 93.6568556,97.1784551 97.4667596,97.4016952 M80.6739556,60.1772443 C80.9024356,58.4512985 82.1200436,57.6578205 82.0448356,55.6453278 C80.6292116,55.3644927 79.6910156,54.6319415 78.2753916,54.3511065 C77.4861836,55.8704718 76.1709956,56.8948058 75.5331556,58.5588727 C76.8459636,59.4765846 78.8080356,59.7821712 80.6739556,60.1772443 M82.3880316,47.8771441 C84.3834236,48.3664635 85.1935756,49.9738873 87.5278796,50.1428643 C87.5002716,48.3893111 88.3356516,47.4516075 88.2142716,45.6114238 C82.1048116,47.3564092 81.8287316,35.1162839 77.5894756,35.2533695 C73.5477596,35.3837912 70.9154796,47.3021461 71.0777956,53.7037578 C72.9299116,53.1863549 73.5115836,51.469929 74.8481916,50.4665386 C82.9459036,50.0857453 85.9789756,54.7066722 82.3880316,47.8771441 M70.3923556,83.4827474 C74.6325636,84.9354739 75.6274036,91.142881 78.9598796,95.1359749 C79.7148156,89.5640167 82.3113956,83.5831816 82.0448356,76.038238 C84.5409796,75.8387975 83.7393956,78.7537704 84.7865956,79.9223299 C85.8171356,77.7313403 87.4093556,74.4627056 89.2419556,74.0957161 C90.0606756,80.6410772 82.6012796,85.9678998 82.3880316,93.193453 C86.4473596,91.1214614 91.3001796,92.1595992 96.0958796,93.193453 C95.6122636,91.4946388 96.1239636,90.3018038 95.7545876,88.9856868 C94.6945356,89.1827474 92.6667756,90.7701795 91.9837156,89.3093612 C93.5692716,87.3535115 95.6455836,85.8617537 97.8099556,84.4537704 C93.4840676,82.6059708 93.7182596,76.4494948 93.3545956,70.8589729 C85.6343516,65.7906138 71.2981836,70.9175198 64.9093116,75.067215 C66.6467116,77.6547056 70.0805756,80.2959833 70.3923556,83.1590731 C70.2019556,83.1581211 70.0034636,83.4213445 70.3923556,83.4827474 M79.3030756,61.7956159 C71.8460596,61.0378372 74.4621556,55.4158998 78.2753916,52.4090605 C79.6962516,52.5866054 81.6126276,53.9917328 82.7307516,53.3796075 C78.5419516,50.3127933 73.0451036,53.3777035 70.7355516,56.6168267 C67.6639236,52.2367516 69.7083436,45.7323257 70.7355516,42.3742046 C69.5131836,42.9368267 67.6753476,44.3119666 65.9374716,43.3457035 C62.4617196,51.1786221 69.9453916,63.8271482 79.3030756,61.7956159 M89.5851516,3.20770772 C72.0497876,-4.54476827 49.4312196,29.0645261 65.2520316,40.1084843 C70.2048116,43.5660877 73.3287996,35.7269812 76.2185956,33.3108476 C75.3522756,31.5358747 73.1636276,29.29681 73.4773116,27.4847098 C81.8967996,33.8848935 96.8879436,36.876977 101.580828,47.8771441 C100.698324,32.6339875 83.1534396,33.1271148 74.8481916,24.8953152 C84.7851676,25.9301211 93.7939436,29.8941795 101.237632,34.2818706 C111.73724,27.70319 97.5533916,6.73052192 89.5851516,3.20770772 M55.9990676,48.2008184 C59.0164316,53.3343883 60.9599396,59.4832484 69.0214756,59.8535699 C66.5205716,53.9679332 57.1500356,48.2041503 63.8806756,42.0505303 C62.6059476,40.5573445 60.9932596,39.3830731 60.4534756,37.1954154 C58.0311116,38.1445428 56.0923636,39.5496701 53.9417956,40.755833 C57.3213956,41.7002004 58.1286916,45.2858455 55.9990676,48.2008184 M64.2238716,73.7720418 C65.5338236,72.8514739 66.5929236,71.6943382 66.9651556,69.8879499 C72.8142436,68.6141962 80.0546796,68.6546555 85.8157076,67.2980793 C83.7489156,63.9632818 77.8864996,64.2127015 73.8200316,62.7666388 C73.6039276,64.2655365 75.5141156,63.7562255 75.1909116,65.3565094 C74.5306996,65.4878831 74.9200676,66.6112234 73.8200316,66.3275324 C68.5683236,59.850238 57.6912476,58.6869144 53.5995516,51.1138873 C49.9486316,60.3785887 59.6609356,67.9240084 64.2238716,73.7720418 M52.2286716,43.3457035 C47.8723196,43.3033403 40.0616356,45.3900877 38.8630676,50.4665386 C43.3979196,48.1679749 46.5180996,44.5337787 52.2286716,43.3457035 M40.5761916,142.71848 C42.6363196,142.506664 45.5970396,143.143541 47.0878716,142.394806 C42.4487756,137.346914 34.0611796,132.234764 40.5761916,142.71848 M60.4534756,73.1246931 C57.4113596,68.7612777 54.6215236,61.6504384 51.2000356,58.5588727 C44.3584876,52.3757411 31.5331436,58.2380543 34.0640356,67.945904 C36.1708116,76.0215783 50.4931756,81.4364593 55.3126756,87.3668392 C56.6464276,92.6089353 64.1058236,94.7951649 67.6510716,99.0195908 C66.4396516,95.9556326 63.9030476,94.1440084 62.8529916,90.9277328 C70.2314676,94.1739958 71.0382876,107.456067 81.3603476,104.846205 C77.6508796,91.9097035 67.5482556,83.2994906 60.4534756,73.1246931 M28.2377956,62.7666388 C29.8100236,58.7487933 31.4384196,54.7837829 32.0081916,49.81919 C26.4466076,49.4645762 28.0445396,58.5607766 25.8392316,62.4429645 C26.9207036,62.2844593 27.0496996,63.0260543 28.2377956,62.7666388 M16.9280356,56.9400251 C19.5041476,57.6368768 21.2705836,58.3208768 23.5173036,59.3275992 C26.2138436,53.9855449 30.0927676,47.4349478 25.4960356,41.7268559 C28.5214916,44.4804676 32.3152116,46.5077161 36.1203556,48.5244927 C40.5709556,46.0379123 43.5978396,42.2071315 49.8291556,41.4031816 C34.3496356,22.2740292 10.9823196,38.5819791 11.1022716,59.2062213 C11.1336876,64.5901628 12.4150796,65.0166514 11.1022716,70.2116242 C5.1265676,93.8607933 -0.2279564,127.888008 11.4449916,150.163942 C10.2935476,151.088317 9.7356756,149.379983 9.0459516,148.868292 C6.2337436,153.999958 8.9526556,157.99924 12.4731516,160.520568 C14.4813956,159.828952 14.7860356,157.52658 15.9003516,155.990079 C14.4951996,156.623148 13.6074596,157.91023 11.4449916,156.960626 C17.0075276,147.19185 29.5467956,157.048209 34.4072316,162.139891 C29.5548876,161.469219 24.6649396,158.231048 20.3557116,155.990079 C4.3002316,171.150889 13.9106716,210.457804 19.6697956,227.524008 C12.7644636,217.211649 5.1018156,190.328117 8.7032316,173.468493 C9.4262756,170.082764 13.0819556,167.924142 12.1304316,164.405612 C11.2250796,161.058914 6.1894756,159.452443 4.9333116,156.960626 C3.5214956,154.160367 6.8611116,147.766372 6.6464356,143.689027 C6.2603996,136.333052 1.2652556,129.034196 0.4774756,121.030873 C-1.2080404,103.894697 7.3661476,87.323524 7.6750716,70.8589729 C9.3553516,69.3172359 8.7141796,65.7330188 10.3835116,64.181286 C7.0515116,48.9495532 13.3585116,39.1917244 20.1410356,34.31281 C31.2794356,27.01919 44.7873636,31.462096 51.8854756,38.8137871 C54.9042676,37.564309 56.8925196,35.3428559 58.7403516,32.9876493 C52.6009036,17.6183549 76.3328356,-7.09322756 91.9837156,2.56035908 C98.2188396,6.40589562 109.361048,20.2962839 108.092032,29.7504301 C107.563196,33.6911649 102.989312,34.0348309 102.265316,37.5190898 C101.138624,42.9487265 107.996832,50.2137871 103.636196,55.9694781 C98.6510476,57.4436242 96.8003596,51.7950313 94.3837076,48.848167 C88.3423156,50.1442923 84.6680716,55.9256868 82.0448356,61.4719415 C86.2674316,64.8214948 92.2164796,66.5393486 97.1254676,69.2406013 C97.4767556,74.44319 95.5032596,82.4403257 100.551716,84.130096 C96.9483956,92.9402255 105.781052,104.772426 92.3264356,106.464576 C93.0404356,110.016902 97.7723516,113.780092 96.7822716,115.851608 C97.5881396,117.248167 100.025736,117.10537 101.580828,117.794129 C101.658892,119.636217 103.658568,121.661562 104.66388,123.620743 C102.18868,125.939775 98.0427196,127.143081 95.0681956,129.770555 C97.5909956,130.271299 100.455564,127.461044 101.922596,126.857486 C117.989024,132.273795 134.327248,135.6719 150.588836,141.099633 C132.002464,138.596392 118.881524,132.560818 101.922596,129.123207 C111.419272,136.220242 134.070684,144.118372 149.217956,148.544618 C167.921424,154.009954 191.333008,162.91671 210.223068,159.550021 C216.162596,158.491891 214.975928,149.806948 209.537152,147.897745 C198.94282,144.175491 180.773424,147.569787 169.438436,144.012701 C165.605208,152.495349 152.486648,148.734539 154.016512,140.12861 C155.320276,132.78977 168.625904,134.153486 169.095716,141.746505 C179.2507,145.359758 227.730348,141.201019 215.706588,158.254848 C211.930004,163.609754 199.008508,160.437269 191.030272,159.550021 C160.602924,156.168576 127.711324,142.360058 103.636196,134.302472 C102.675628,134.819875 104.117432,135.75853 103.636196,136.892342 C98.5924996,138.755374 95.0601036,139.78304 90.9560316,141.099633 C83.1396356,134.499056 95.0434436,123.925854 89.9283476,117.470455 C90.7537316,116.523708 91.6933556,115.685486 93.3545956,115.527933 C92.2026756,109.77605 86.5939676,103.322079 88.5574676,98.6963925 C86.1155876,97.6915741 83.1186916,98.950572 81.3603476,99.6674154 C87.5435876,110.698522 91.8927996,124.362338 85.8157076,137.215541 C84.1644636,137.943808 81.6878356,137.357862 80.6739556,137.215541 C80.5611436,135.921795 81.2846636,135.418196 81.0171516,133.979273 C80.5720916,133.588484 77.5504436,133.850756 76.2185956,133.330497 C72.2601796,140.590322 76.2519156,151.414372 70.0501116,156.313278 C71.4985796,168.168326 70.6817636,185.370664 73.8200316,196.77352 C73.0722356,196.832067 72.7295156,196.508868 72.7918716,195.802973 C71.9969516,196.67737 73.1760036,197.065303 72.1064316,197.097194 C67.1136676,187.221319 72.9589476,169.332601 62.8529916,162.139891 C62.1604116,162.920518 64.1324796,163.938664 64.2238716,165.05296 C62.7178076,163.885829 61.3078956,162.627783 61.1389156,160.19737 C63.6555276,159.504326 65.6832876,161.607257 67.6510716,162.46309 C66.9542076,160.748092 67.1165236,158.219624 66.2801916,156.636952 C65.6356876,156.42942 63.2447396,156.399908 61.8243556,155.341303 C62.2660836,154.355524 63.9463636,154.541161 63.5384316,152.751908 C60.4082556,152.040777 57.3028316,151.304418 53.2563556,151.457687 C52.0025716,156.665035 55.0503996,164.730714 54.2849916,169.260251 C51.4604076,164.807349 51.4946796,157.65367 48.8014716,153.07701 C49.7710836,152.329228 50.1304636,152.682413 51.5432316,152.105035 C47.5814836,151.997461 40.2001516,152.574839 37.8344316,154.047557 C33.9959676,152.478689 34.7885076,144.859015 34.0640356,141.422831 C35.5520116,141.421403 35.5310676,142.842714 36.1203556,143.689027 C36.5330476,143.323466 36.7415356,142.766079 37.8344316,143.042154 C35.1631196,137.028952 30.3664676,128.441587 28.2377956,123.620743 C34.7337676,126.123983 38.4627516,134.027825 45.0315516,137.539215 C44.5722116,127.997962 40.0021356,119.781871 41.9470716,110.02547 C47.1959236,122.622113 45.0377396,151.689495 68.3360356,146.602096 C68.2698716,149.435674 64.7746036,152.195474 64.5670676,155.018104 C73.5306236,151.683783 70.5703796,143.123073 64.2238716,138.186088 C63.7126476,141.131524 67.8448036,141.356192 65.9374716,143.689027 C62.8144356,143.185428 62.1513676,140.35899 60.7966716,138.186088 C58.5618516,138.989562 58.2329356,141.591808 55.9990676,142.394806 C55.1398876,139.590739 57.9935076,137.625846 59.0830716,135.596693 C57.8507076,132.860693 54.1079196,129.829102 55.9990676,126.210138 C63.7968996,127.981303 65.1149436,138.477871 71.4209916,142.71848 C70.4628036,129.994747 74.7291916,118.385311 72.7918716,108.083424 C71.2505836,99.8877996 56.2032716,96.6367766 51.8854756,89.9567098 C48.3449876,93.7337035 47.5529236,100.106756 44.6883556,104.52253 C44.1557116,105.673478 43.6173556,106.532167 42.9752316,107.435599 C42.6801116,100.507065 46.9307916,92.2414697 48.1160316,85.4252693 C41.9561156,78.4082004 34.0135796,69.3181879 25.8392316,78.6276326 C25.9334796,75.0248518 31.1428236,73.5111983 32.6931556,70.2116242 C27.0754036,67.2966514 20.6270316,78.1278413 20.0129916,84.130096 C18.7377876,84.6270313 17.2122076,84.0406096 15.9003516,83.1590731 C18.8101396,76.8445678 24.6716036,73.3165177 28.2377956,67.6222296 C25.5588676,66.3760835 21.0506716,66.8577871 18.2989156,65.6801837 C18.6140276,63.8195324 21.6328196,64.5125762 23.7829116,64.3850104 C23.3830716,61.6304468 17.7591316,59.2876159 16.9280356,56.9400251" id="Fill-33" fill="#000000" mask="url(#mask-2)"></path>
                </g>
                <path d="M22.2599496,160.287665 C24.5499856,177.940767 22.5902936,203.539598 29.7993136,219.198772 C28.1461656,221.050379 26.4001976,222.796316 23.9730736,223.083815 C17.9426296,205.761051 15.7468416,178.540517 22.2599496,160.287665" id="Fill-36" fill="#000000"></path>
                <path d="M166.79654,154.638501 C174.817616,156.565791 190.895468,162.822701 210.89318,161.294292 L210.89318,159.646409 C210.89318,159.646409 191.797488,160.968238 169.246512,154.137758 L166.79654,154.638501 Z" id="Fill-38" fill="#000000"></path>
                <path d="M123.146674,98.5525002 C121.211258,96.6190221 120.323994,96.9926756 118.474734,92.694947 C122.46171,94.0486672 121.805306,95.4100033 123.146674,96.9817278 L123.146674,98.5525002" id="Fill-40" fill="#EB3F4A"></path>
                <path d="M237.77766,119.167699 C235.650416,121.125928 232.961492,121.761377 229.961264,121.799932 C232.493584,120.039239 233.670256,119.352859 237.77766,119.167699" id="Fill-42" fill="#EB3F4A"></path>
                <path d="M222.107026,123.056646 C218.697914,124.896829 213.351958,126.43095 209.226466,126.512821 C209.675334,124.291368 212.511818,124.695009 214.253026,124.313739 C216.598754,123.799192 218.420406,122.904328 222.107026,123.056646" id="Fill-44" fill="#EB3F4A"></path>
                <path d="M208.254141,86.6252443 C206.294449,89.9019708 206.010277,90.4141378 202.943885,92.5837077 C204.349989,88.7543549 204.150545,87.7581044 208.254141,86.6252443" id="Fill-46" fill="#EB3F4A"></path>
                <path d="M202.000168,128.397034 C198.979472,130.625151 193.60924,132.135472 189.434244,132.167364 C193.234628,130.522337 197.078804,128.920625 202.000168,128.397034" id="Fill-48" fill="#EB3F4A"></path>
                <path d="M183.465775,117.402055 C181.578911,121.170481 179.182251,124.428168 175.611775,126.513011 C177.737591,122.984009 179.522115,119.113245 183.465775,117.402055" id="Fill-50" fill="#EB3F4A"></path>
                <path d="M161.945862,82.2669695 C159.295494,79.8941511 160.966254,77.1909946 161.400842,74.8200802 C163.507618,77.6384267 161.737374,79.1654079 161.945862,82.2669695" id="Fill-52" fill="#EB3F4A"></path>
                <path d="M160.531286,101.380081 C158.45783,99.7883649 160.12621,94.4544025 159.589282,91.3266614 C160.475118,91.2700184 159.980554,89.8339516 161.160082,90.0705194 C161.633226,93.4714797 160.997766,98.7502271 160.531286,101.380081" id="Fill-54" fill="#EB3F4A"></path>
                <path d="M160.845731,125.883893 C158.326263,123.114098 160.269295,118.106666 159.903727,114.260177 C160.440655,114.273981 160.716735,114.026941 160.845731,113.631868 C161.602571,117.914365 161.498803,122.545764 160.845731,125.883893" id="Fill-56" fill="#EB3F4A"></path>
                <path d="M147.336375,127.454904 C144.151935,124.56611 140.399151,122.245175 138.854531,117.716114 C142.077527,120.367864 146.293459,123.66601 147.336375,127.454904" id="Fill-58" fill="#EB3F4A"></path>
                <path d="M134.141465,112.061286 C131.113153,109.749871 128.329029,107.192367 126.916261,103.26496 C130.729497,104.582505 131.501569,108.941637 134.456101,111.118823 C134.544161,111.62623 134.159553,111.659549 134.141465,112.061286" id="Fill-60" fill="#EB3F4A"></path>
                <path d="M196.973846,100.123511 C195.072702,103.184613 192.214798,106.828329 189.748642,108.291527 C190.629718,105.296588 193.45097,101.52245 196.973846,100.123511" id="Fill-62" fill="#EB3F4A"></path>
                <path d="M201.618606,198.908295 C204.304198,200.931259 205.991142,201.863251 206.817478,206.374224 C202.979014,204.64447 204.852074,202.576286 201.46819,200.471927 C201.51817,199.950241 201.568626,199.42903 201.618606,198.908295" id="Fill-64" fill="#EB3F4A"></path>
                <path d="M95.4076312,164.532987 C97.7128992,162.788002 100.280443,162.77753 103.270675,163.026473 C100.581275,164.536795 99.5136072,164.742899 95.4076312,164.532987" id="Fill-66" fill="#EB3F4A"></path>
                <path d="M109.623228,162.588609 C113.193228,161.083523 116.281992,160.47473 120.39606,160.788884 C119.736324,162.957026 116.951248,162.283498 115.181956,162.496266 C112.797672,162.783289 113.278432,163.093636 109.623228,162.588609" id="Fill-68" fill="#EB3F4A"></path>
                <path d="M117.509168,200.48397 C119.773976,197.410492 121.42284,196.434709 124.683916,194.569298 C122.916528,198.246333 121.702252,199.749991 117.509168,200.48397" id="Fill-70" fill="#EB3F4A"></path>
                <path d="M127.769681,159.606426 C130.990297,157.678184 136.480481,156.689549 140.639293,157.058443 C136.698489,158.33172 132.718653,159.556923 127.769681,159.606426" id="Fill-72" fill="#EB3F4A"></path>
                <path d="M143.384861,174.361691 C145.624441,170.791754 148.322409,167.778727 152.076621,166.046117 C149.621889,169.354735 147.474653,173.03653 143.384861,174.361691" id="Fill-74" fill="#EB3F4A"></path>
                <path d="M160.661614,214.530484 C164.43439,216.946141 161.001478,220.742175 160.341266,223.060254 C158.514854,220.052939 160.57165,217.637757 160.661614,214.530484" id="Fill-76" fill="#EB3F4A"></path>
                <path d="M164.677293,192.508873 C166.588433,194.292413 164.416445,199.441215 164.651113,202.606084 C163.763849,202.577524 164.118469,204.055002 162.966549,203.7061 C162.822321,200.275628 163.960913,195.082084 164.677293,192.508873" id="Fill-78" fill="#EB3F4A"></path>
                <path d="M166.714002,168.087835 C168.956438,171.086583 166.542166,175.884579 166.53693,179.748203 C166.004286,179.682992 165.705358,179.902424 165.539234,180.283218 C165.196514,175.948362 165.743438,171.348378 166.714002,168.087835" id="Fill-80" fill="#EB3F4A"></path>
                <path d="M180.311751,167.819376 C183.204403,170.999952 186.717759,173.670266 187.820651,178.326416 C184.867071,175.378124 180.986719,171.691092 180.311751,167.819376" id="Fill-82" fill="#EB3F4A"></path>
                <path d="M191.9698,184.4074 C194.762492,186.998698 197.288624,189.811333 198.318212,193.855834 C194.648728,192.178915 194.298392,187.765997 191.566152,185.315116 C191.52712,184.801521 191.913156,184.805329 191.9698,184.4074" id="Fill-84" fill="#EB3F4A"></path>
                <path d="M130.910805,187.855769 C133.096597,184.990775 134.847801,182.646992 137.442953,181.426549 C136.279133,184.323435 134.551729,186.800971 130.910805,187.855769" id="Fill-86" fill="#EB3F4A"></path>
            </g>
        </g>
    </g>
</svg>