<?xml version="1.0" encoding="UTF-8"?>
<svg width="306px" height="118px" viewBox="0 0 306 118" version="1.1" xmlns="http://www.w3.org/2000/svg" xmlns:xlink="http://www.w3.org/1999/xlink">
    <!-- Generator: Sketch 44.1 (41455) - http://www.bohemiancoding.com/sketch -->
    <title>Untitled</title>
    <desc>Created with Sketch.</desc>
    <defs></defs>
    <g id="Page-1" stroke="none" stroke-width="1" fill="none" fill-rule="evenodd">
        <path d="M42.2903465,118.139928 L26.2406205,118.139928 C24.4696074,118.139928 23.1782631,117.733214 22.3665488,116.919774 C21.5548344,116.106333 21.1489833,114.812243 21.1489833,113.037463 L21.1489833,108.156844 L7.09163719,108.156844 C5.32062409,108.156844 4.02927975,107.75013 3.21756541,106.93669 C2.40585108,106.123249 2,104.829158 2,103.054379 L2,90.0763697 C2,89.1150309 2.12913443,88.3016026 2.38740718,87.6360603 C2.64567992,86.970518 3.03308322,86.4159078 3.54962871,85.9722129 L14.6184052,76.6546678 C10.707418,75.4714815 7.62663931,73.4563976 5.37597683,70.6093557 C3.12531436,67.7623138 2,63.676685 2,58.3523469 L2,46.7054154 C2,43.3777041 2.55343329,40.4197828 3.66031647,37.8315628 C4.76719966,35.2433429 6.35370842,33.061876 8.41989037,31.2870966 L21.1489833,20.5275504 C21.2227756,19.6401607 21.4072533,18.9191674 21.7024222,18.3645488 C21.997591,17.8099303 22.329651,17.3847291 22.6986121,17.0889325 L36.9773337,4.99830841 C37.3462948,4.70251185 37.8443848,4.46218074 38.4716186,4.27730789 C39.0988524,4.09243504 39.7814201,4 40.5193422,4 L56.5690681,4 C58.3400812,4 59.6314256,4.40671417 60.4431399,5.22015473 C61.2548542,6.03359528 61.6607053,7.32768583 61.6607053,9.10246522 L61.6607053,13.9830841 L71.2905409,13.9830841 C73.061554,13.9830841 74.3528983,14.3897983 75.1646126,15.2032388 C75.976327,16.0166794 76.3821781,17.31077 76.3821781,19.0855493 L76.3821781,32.285405 C76.3821781,33.2467438 76.2530436,34.0601722 75.9947709,34.7257145 C75.7364981,35.3912567 75.3490948,35.945867 74.8325494,36.3895618 L64.8706505,44.7087986 C69.5195599,45.7440865 73.2644585,47.6852224 76.1054587,50.5322643 C78.9464588,53.3793062 80.3669376,57.7977011 80.3669376,63.7875816 L80.3669376,75.434513 C80.3669376,78.7622244 79.8135043,81.7201456 78.7066211,84.3083656 C77.5997379,86.8965855 75.9763336,89.0780525 73.8363595,90.8528318 L61.6607053,101.057762 C61.6607053,102.019101 61.5315709,102.814042 61.2732981,103.44261 C61.0150254,104.071178 60.6276221,104.607301 60.1110766,105.050996 L45.7216672,117.030697 C45.4264983,117.326493 44.9653039,117.585312 44.3380701,117.807159 C43.7108363,118.029006 43.0282686,118.139928 42.2903465,118.139928 Z" id="Path-Copy-9" fill="#FFFFFF"></path>
        <path d="M56.1834688,104.830841 C57.5855208,104.830841 58.6001485,104.516562 59.2273823,103.887994 C59.8546161,103.259427 60.1682283,102.242641 60.1682283,100.837608 L60.1682283,94.6259108 C65.9978131,94.0343176 70.5728616,92.0746948 73.8935112,88.7469834 C77.2141608,85.4192721 78.8744606,80.9454162 78.8744606,75.3252815 L78.8744606,63.67835 C78.8744606,57.4666221 77.2879519,53.0297402 74.1148867,50.3675712 C70.9418216,47.7054021 66.7726241,46.0045974 61.6071693,45.2651059 L45.1146923,43.0466428 C44.1553935,42.9726937 43.4174825,42.6029535 42.900937,41.9374112 C42.3843915,41.271869 42.1261226,40.4584406 42.1261226,39.4971018 C42.1261226,38.535763 42.3843915,37.7408216 42.900937,37.1122539 C43.4174825,36.4836862 44.1553935,36.1694071 45.1146923,36.1694071 L70.9049415,36.1694071 C72.3069936,36.1694071 73.3216213,35.8551279 73.9488551,35.2265603 C74.5760889,34.5979926 74.8897011,33.5812071 74.8897011,32.1761734 L74.8897011,18.9763178 C74.8897011,17.5712841 74.5760889,16.5544987 73.9488551,15.925931 C73.3216213,15.2973633 72.3069936,14.9830841 70.9049415,14.9830841 L60.1682283,14.9830841 L60.1682283,8.99323365 C60.1682283,7.58819997 59.8546161,6.57141453 59.2273823,5.94284683 C58.6001485,5.31427914 57.5855208,5 56.1834688,5 L40.1337429,5 C38.7316908,5 37.7170631,5.31427914 37.0898293,5.94284683 C36.4625955,6.57141453 36.1489833,7.58819997 36.1489833,8.99323365 L36.1489833,15.2049304 C30.1718141,15.7225744 25.486079,17.6267362 22.0916372,20.917473 C18.6971954,24.2082098 17,28.7375267 17,34.5055597 L17,46.1524912 C17,52.364219 18.568061,56.801101 21.70423,59.46327 C24.840399,62.1254391 28.9911487,63.8262438 34.1566036,64.5657352 L50.7597683,66.8951215 C51.7190671,66.9690707 52.4385304,67.3018368 52.9181797,67.89343 C53.3978291,68.4850231 53.6376502,69.4093735 53.6376502,70.6665089 C53.6376502,71.5538986 53.3978291,72.3118659 52.9181797,72.9404336 C52.4385304,73.5690013 51.7190671,73.8832804 50.7597683,73.8832804 L20.9847595,73.8832804 C19.5827075,73.8832804 18.5680798,74.1975596 17.940846,74.8261273 C17.3136122,75.454695 17,76.4714804 17,77.8765141 L17,90.8545234 C17,92.2595571 17.3136122,93.2763425 17.940846,93.9049102 C18.5680798,94.5334779 19.5827075,94.8477571 20.9847595,94.8477571 L36.1489833,94.8477571 L36.1489833,100.837608 C36.1489833,102.242641 36.4625955,103.259427 37.0898293,103.887994 C37.7170631,104.516562 38.7316908,104.830841 40.1337429,104.830841 L56.1834688,104.830841 Z" id="Path-Copy-8" fill="#FFFFFF"></path>
        <path d="M91.0916372,108.17376 C89.3206241,108.17376 88.0292797,107.767046 87.2175654,106.953605 C86.4058511,106.140165 86,104.846074 86,103.071295 L86,90.0932856 C86,89.1319468 86.1291344,88.3185184 86.3874072,87.6529762 C86.6456799,86.9874339 87.0330832,86.4328237 87.5496287,85.9891288 L97.290152,77.7808152 L92.1985148,77.7808152 C90.4275017,77.7808152 89.1361574,77.374101 88.3244431,76.5606605 C87.5127287,75.7472199 87.1068776,74.4531294 87.1068776,72.67835 L87.1068776,31.1930893 C87.1068776,30.2317505 87.2360121,29.4183221 87.4942848,28.7527799 C87.7525576,28.0872376 88.1399609,27.5326274 88.6565064,27.0889325 L102.935228,14.9983084 C103.304189,14.7025118 103.802279,14.4621807 104.429513,14.2773079 C105.056747,14.092435 105.739314,14 106.477237,14 L154.183663,14 C155.954676,14 157.246021,14.4067142 158.057735,15.2201547 C158.869449,16.0335953 159.2753,17.3276858 159.2753,19.1024652 L159.2753,32.3023209 C159.2753,33.2636597 159.146166,34.0770881 158.887893,34.7426303 C158.62962,35.4081726 158.242217,35.9627828 157.725672,36.4064777 L149.756153,43.1727903 C153.962309,44.1341291 157.264461,46.130726 159.662708,49.1626407 C162.060954,52.1945555 163.26006,56.1877492 163.26006,61.1423417 L163.26006,76.5606605 C163.26006,79.5186261 162.725074,82.2362163 161.655087,84.7135125 C160.5851,87.1908087 159.017039,89.2798406 156.950857,90.9806709 L142.561448,103.071295 C140.64285,104.698176 138.299983,105.955293 135.532775,106.842682 C132.765567,107.730072 129.684788,108.17376 126.290346,108.17376 L91.0916372,108.17376 Z" id="Path-Copy-7" fill="#FFFFFF"></path>
        <path d="M140.183469,94.864673 C146.824768,94.864673 152.082384,93.2008422 155.956475,89.8731309 C159.830566,86.5454195 161.767583,82.0715636 161.767583,76.4514289 L161.767583,61.0331101 C161.767583,55.191128 160.033492,50.7912201 156.565258,47.8332544 C153.097024,44.8752888 148.374393,43.3963282 142.397224,43.3963282 L127.233,43.3963282 L127.233,36.186323 L153.798064,36.186323 C155.200116,36.186323 156.214744,35.8720438 156.841977,35.2434761 C157.469211,34.6149084 157.782823,33.598123 157.782823,32.1930893 L157.782823,18.9932336 C157.782823,17.5882 157.469211,16.5714145 156.841977,15.9428468 C156.214744,15.3142791 155.200116,15 153.798064,15 L106.091637,15 C104.689585,15 103.674957,15.3142791 103.047724,15.9428468 C102.42049,16.5714145 102.106878,17.5882 102.106878,18.9932336 L102.106878,60.4784943 C102.106878,61.883528 102.42049,62.9003134 103.047724,63.5288811 C103.674957,64.1574488 104.689585,64.471728 106.091637,64.471728 L133.542203,64.471728 C134.427709,64.471728 135.147173,64.6750851 135.700614,65.0818053 C136.254056,65.4885256 136.530773,66.1355709 136.530773,67.0229606 L136.530773,71.3489637 C136.530773,72.2363534 136.254056,72.8833987 135.700614,73.2901189 C135.147173,73.6968392 134.427709,73.9001963 133.542203,73.9001963 L104.98476,73.9001963 C103.582708,73.9001963 102.56808,74.2144754 101.940846,74.8430431 C101.313612,75.4716108 101,76.4883963 101,77.89343 L101,90.8714393 C101,92.276473 101.313612,93.2932584 101.940846,93.9218261 C102.56808,94.5503938 103.582708,94.864673 104.98476,94.864673 L140.183469,94.864673 Z" id="Path-Copy-6" fill="#FFFFFF"></path>
        <path d="M195.450566,107.812955 L173.091637,107.812955 C171.320624,107.812955 170.02928,107.406241 169.217565,106.592801 C168.405851,105.77936 168,104.48527 168,102.71049 L168,80.1930893 C168,79.2317505 168.129134,78.3998351 168.387407,77.6973183 C168.64568,76.9948014 168.996188,76.4586782 169.438941,76.0889325 L183.82835,63.9983084 C184.197311,63.7025118 184.676954,63.4621807 185.267291,63.2773079 C185.857629,63.092435 186.558645,63 187.370359,63 L209.729287,63 C211.5003,63 212.791645,63.3882272 213.603359,64.1646931 C214.415074,64.9411591 214.820925,66.2537367 214.820925,68.1024652 L214.820925,90.6198661 C214.820925,91.5812049 214.69179,92.3946332 214.433517,93.0601755 C214.175245,93.7257178 213.787841,94.280328 213.271296,94.7240229 L198.881886,106.703724 C198.586718,106.99952 198.125523,107.258338 197.498289,107.480186 C196.871056,107.702033 196.188488,107.812955 195.450566,107.812955 Z" id="Path-Copy-5" fill="#FFFFFF"></path>
        <path d="M210.343688,94.5038681 C211.74574,94.5038681 212.760368,94.189589 213.387602,93.5610213 C214.014835,92.9324536 214.328448,91.9156682 214.328448,90.5106345 L214.328448,67.9932336 C214.328448,66.5882 214.014835,65.5714145 213.387602,64.9428468 C212.760368,64.3142791 211.74574,64 210.343688,64 L187.98476,64 C186.582708,64 185.56808,64.3142791 184.940846,64.9428468 C184.313612,65.5714145 184,66.5882 184,67.9932336 L184,90.5106345 C184,91.9156682 184.313612,92.9324536 184.940846,93.5610213 C185.56808,94.189589 186.582708,94.5038681 187.98476,94.5038681 L210.343688,94.5038681 Z" id="Path-Copy-4" fill="#FFFFFF"></path>
        <path d="M256.313207,109.837608 C249.229155,109.837608 243.436553,109.098127 238.935228,107.619144 C234.433903,106.140162 230.928826,104.162052 228.41989,101.684756 C225.910955,99.2074593 224.21376,96.3419731 223.328253,93.0882109 C222.442747,89.8344487 222,86.4698132 222,82.9942036 L222,49.9391028 C222,46.1676966 222.534986,42.7291132 223.604973,39.6232492 C224.67496,36.5173853 226.464394,33.9292042 228.973329,31.8586283 L243.252051,19.7680042 C245.392025,17.9192756 248.214535,16.495776 251.719665,15.4974626 C255.224795,14.4991492 259.523127,14 264.61479,14 L290.072975,14 C291.917781,14 293.227573,14.4067142 294.002391,15.2201547 C294.777209,16.0335953 295.164613,17.3276858 295.164613,19.1024652 L295.164613,32.1913977 C295.164613,33.1527366 295.035478,33.9661649 294.777205,34.6317072 C294.518933,35.2972494 294.131529,35.8518597 293.614984,36.2955545 L285.534777,43.0618671 C292.397453,44.0232059 297.120084,46.2416469 299.702811,49.7172565 C302.285538,53.1928661 303.576883,57.8146181 303.576883,63.5826511 L303.576883,74.2312742 C303.576883,77.7068838 303.097241,80.8866492 302.137942,83.7706657 C301.178643,86.6546822 299.444552,89.1319412 296.935617,91.2025172 L282.546207,103.293141 C280.111064,105.363717 276.772017,106.972087 272.528965,108.118299 C268.285913,109.26451 262.880714,109.837608 256.313207,109.837608 Z" id="Path-Copy-3" fill="#FFFFFF"></path>
        <path d="M270.206329,96.5285203 C276.55246,96.5285203 281.791628,95.9923971 285.923992,94.9201345 C290.056356,93.847872 293.321612,92.3319373 295.719859,90.3722851 C298.118106,88.4126329 299.778406,86.0647829 300.700809,83.3286646 C301.623211,80.5925464 302.084406,77.5237031 302.084406,74.1220426 L302.084406,63.4734196 C302.084406,56.891946 300.239628,51.9189409 296.550018,48.554255 C292.860407,45.189569 286.03473,43.5072513 276.072781,43.5072513 C273.121093,43.5072513 270.483061,43.6551474 268.158606,43.9509439 C265.834151,44.2467405 263.786448,44.6534547 262.015435,45.1710987 L262.015435,42.7307892 C262.015435,39.994671 262.495077,38.2014312 263.454376,37.3510161 C264.413675,36.500601 266.258452,36.0753998 268.988764,36.0753998 L289.687376,36.0753998 C291.089428,36.0753998 292.104056,35.7611207 292.73129,35.132553 C293.358523,34.5039853 293.672136,33.4871998 293.672136,32.0821662 L293.672136,18.9932336 C293.672136,17.5882 293.358523,16.5714145 292.73129,15.9428468 C292.104056,15.3142791 291.089428,15 289.687376,15 L264.22919,15 C253.824488,15 246.685199,17.1075189 242.811108,21.3226199 C238.937017,25.537721 237,31.0098753 237,37.7392472 L237,74.1220426 C237,77.5237031 237.461194,80.5925464 238.383597,83.3286646 C239.306,86.0647829 240.984747,88.4126329 243.41989,90.3722851 C245.855033,92.3319373 249.230976,93.847872 253.547821,94.9201345 C257.864665,95.9923971 263.417446,96.5285203 270.206329,96.5285203 Z" id="Path-Copy-2" fill="#FFFFFF"></path>
        <path d="M263,65.9932336 C263,64.8839965 263.442747,63.9411591 264.328253,63.1646931 C265.21376,62.3882272 267.243015,62 270.41608,62 C273.73673,62 275.839776,62.3882272 276.725283,63.1646931 C277.610789,63.9411591 278.053536,64.8839965 278.053536,65.9932336 L278.053536,72.5376999 C278.053536,73.7208862 277.610789,74.7006976 276.725283,75.4771636 C275.839776,76.2536295 273.73673,76.6418567 270.41608,76.6418567 C267.243015,76.6418567 265.21376,76.2536295 264.328253,75.4771636 C263.442747,74.7006976 263,73.7208862 263,72.5376999 L263,65.9932336 Z" id="Path-Copy" fill="#FFFFFF"></path>
        <path d="M40.729842,114.531422 L24.6801161,114.531422 C22.909103,114.531422 21.6177586,114.124708 20.8060443,113.311267 C19.99433,112.497827 19.5884789,111.203736 19.5884789,109.428957 L19.5884789,104.548338 L5.53113273,104.548338 C3.76011963,104.548338 2.46877529,104.141624 1.65706095,103.328183 C0.845346617,102.514743 0.439495537,101.220652 0.439495537,99.4458726 L0.439495537,86.4678632 C0.439495537,85.5065244 0.568629972,84.6930961 0.826902715,84.0275538 C1.08517546,83.3620115 1.47257876,82.8074013 1.98912425,82.3637064 L13.0579007,73.0461613 C9.14691349,71.862975 6.06613484,69.8478911 3.81547237,67.0008492 C1.56480989,64.1538073 0.439495537,60.0681785 0.439495537,54.7438404 L0.439495537,43.0969089 C0.439495537,39.7691975 0.992928828,36.8112763 2.09981201,34.2230563 C3.2066952,31.6348364 4.79320396,29.4533695 6.85938591,27.6785901 L19.5884789,16.9190439 C19.6622711,16.0316542 19.8467489,15.3106609 20.1419177,14.7560423 C20.4370866,14.2014238 20.7691465,13.7762226 21.1381076,13.480426 L35.4168293,1.38980191 C35.7857903,1.09400534 36.2838803,0.85367424 36.9111141,0.668801387 C37.5383479,0.483928535 38.2209156,0.391493495 38.9588377,0.391493495 L55.0085637,0.391493495 C56.7795768,0.391493495 58.0709211,0.79820767 58.8826354,1.61164822 C59.6943498,2.42508877 60.1002009,3.71917933 60.1002009,5.49395871 L60.1002009,10.3745776 L69.7300364,10.3745776 C71.5010495,10.3745776 72.7923939,10.7812918 73.6041082,11.5947323 C74.4158225,12.4081729 74.8216736,13.7022634 74.8216736,15.4770428 L74.8216736,28.6768985 C74.8216736,29.6382373 74.6925392,30.4516657 74.4342664,31.117208 C74.1759937,31.7827502 73.7885904,32.3373605 73.2720449,32.7810553 L63.310146,41.1002921 C67.9590554,42.13558 71.703954,44.0767159 74.5449542,46.9237578 C77.3859544,49.7707997 78.8064331,54.1891946 78.8064331,60.1790751 L78.8064331,71.8260065 C78.8064331,75.1537179 78.2529999,78.1116391 77.1461167,80.6998591 C76.0392335,83.288079 74.4158292,85.4695459 72.275855,87.2443253 L60.1002009,97.4492558 C60.1002009,98.4105946 59.9710664,99.2055359 59.7127937,99.8341036 C59.4545209,100.462671 59.0671176,100.998795 58.5505721,101.442489 L44.1611627,113.42219 C43.8659939,113.717987 43.4047994,113.976805 42.7775656,114.198652 C42.1503318,114.4205 41.4677641,114.531422 40.729842,114.531422 Z M55.0085637,101.331566 C56.4106157,101.331566 57.4252434,101.017287 58.0524772,100.388719 C58.679711,99.7601517 58.9933232,98.7433663 58.9933232,97.3383326 L58.9933232,91.1266358 C64.822908,90.5350427 69.3979565,88.5754199 72.7186061,85.2477085 C76.0392556,81.9199972 77.6995555,77.4461412 77.6995555,71.8260065 L77.6995555,60.1790751 C77.6995555,53.9673472 76.1130467,49.5304653 72.9399816,46.8682962 C69.7669165,44.2061272 65.597719,42.5053224 60.4322642,41.765831 L43.9397872,39.5473679 C42.9804884,39.4734187 42.2425774,39.1036786 41.7260319,38.4381363 C41.2094864,37.772594 40.9512175,36.9591657 40.9512175,35.9978269 C40.9512175,35.036488 41.2094864,34.2415467 41.7260319,33.612979 C42.2425774,32.9844113 42.9804884,32.6701321 43.9397872,32.6701321 L69.7300364,32.6701321 C71.1320884,32.6701321 72.1467161,32.355853 72.7739499,31.7272853 C73.4011838,31.0987176 73.714796,30.0819322 73.714796,28.6768985 L73.714796,15.4770428 C73.714796,14.0720092 73.4011838,13.0552237 72.7739499,12.426656 C72.1467161,11.7980883 71.1320884,11.4838092 69.7300364,11.4838092 L58.9933232,11.4838092 L58.9933232,5.49395871 C58.9933232,4.08892503 58.679711,3.0721396 58.0524772,2.4435719 C57.4252434,1.8150042 56.4106157,1.50072506 55.0085637,1.50072506 L38.9588377,1.50072506 C37.5567857,1.50072506 36.542158,1.8150042 35.9149242,2.4435719 C35.2876904,3.0721396 34.9740782,4.08892503 34.9740782,5.49395871 L34.9740782,11.7056555 C28.996909,12.2232995 24.3111738,14.1274613 20.9167321,17.4181981 C17.5222903,20.7089349 15.8250949,25.2382518 15.8250949,31.0062848 L15.8250949,42.6532163 C15.8250949,48.8649441 17.3931559,53.301826 20.5293249,55.9639951 C23.6654939,58.6261642 27.8162436,60.3269689 32.9816984,61.0664603 L49.5848632,63.3958466 C50.5441619,63.4697957 51.2636252,63.8025619 51.7432746,64.394155 C52.222924,64.9857481 52.4627451,65.9100985 52.4627451,67.1672339 C52.4627451,68.0546236 52.222924,68.812591 51.7432746,69.4411587 C51.2636252,70.0697264 50.5441619,70.3840055 49.5848632,70.3840055 L19.8098544,70.3840055 C18.4078024,70.3840055 17.3931747,70.6982846 16.7659409,71.3268523 C16.1387071,71.95542 15.8250949,72.9722055 15.8250949,74.3772391 L15.8250949,87.3552485 C15.8250949,88.7602822 16.1387071,89.7770676 16.7659409,90.4056353 C17.3931747,91.034203 18.4078024,91.3484821 19.8098544,91.3484821 L34.9740782,91.3484821 L34.9740782,97.3383326 C34.9740782,98.7433663 35.2876904,99.7601517 35.9149242,100.388719 C36.542158,101.017287 37.5567857,101.331566 38.9588377,101.331566 L55.0085637,101.331566 Z M88.9897075,104.548338 C87.2186944,104.548338 85.9273501,104.141624 85.1156357,103.328183 C84.3039214,102.514743 83.8980703,101.220652 83.8980703,99.4458726 L83.8980703,86.4678632 C83.8980703,85.5065244 84.0272048,84.6930961 84.2854775,84.0275538 C84.5437502,83.3620115 84.9311536,82.8074013 85.447699,82.3637064 L95.1882224,74.1553928 L90.0965852,74.1553928 C88.3255721,74.1553928 87.0342277,73.7486786 86.2225134,72.9352381 C85.4107991,72.1217975 85.004948,70.827707 85.004948,69.0529276 L85.004948,27.5676669 C85.004948,26.6063281 85.1340824,25.7928997 85.3923552,25.1273575 C85.6506279,24.4618152 86.0380312,23.907205 86.5545767,23.4635101 L100.833298,11.372886 C101.202259,11.0770895 101.700349,10.8367584 102.327583,10.6518855 C102.954817,10.4670127 103.637385,10.3745776 104.375307,10.3745776 L152.081734,10.3745776 C153.852747,10.3745776 155.144091,10.7812918 155.955805,11.5947323 C156.76752,12.4081729 157.173371,13.7022634 157.173371,15.4770428 L157.173371,28.6768985 C157.173371,29.6382373 157.044236,30.4516657 156.785964,31.117208 C156.527691,31.7827502 156.140288,32.3373605 155.623742,32.7810553 L147.654223,39.5473679 C151.860379,40.5087067 155.162531,42.5053036 157.560778,45.5372183 C159.959025,48.5691331 161.15813,52.5623268 161.15813,57.5169193 L161.15813,72.9352381 C161.15813,75.8932037 160.623145,78.6107939 159.553158,81.0880901 C158.483171,83.5653863 156.91511,85.6544182 154.848928,87.3552485 L140.459518,99.4458726 C138.540921,101.072754 136.198053,102.32987 133.430845,103.21726 C130.663637,104.10465 127.582859,104.548338 124.188417,104.548338 L88.9897075,104.548338 Z M138.467138,91.3484821 C145.108438,91.3484821 150.366054,89.6846514 154.240145,86.3569401 C158.114236,83.0292287 160.051253,78.5553728 160.051253,72.9352381 L160.051253,57.5169193 C160.051253,51.6749371 158.317162,47.2750293 154.848928,44.3170636 C151.380694,41.359098 146.658063,39.8801373 140.680894,39.8801373 L125.51667,39.8801373 L125.51667,32.6701321 L152.081734,32.6701321 C153.483786,32.6701321 154.498413,32.355853 155.125647,31.7272853 C155.752881,31.0987176 156.066493,30.0819322 156.066493,28.6768985 L156.066493,15.4770428 C156.066493,14.0720092 155.752881,13.0552237 155.125647,12.426656 C154.498413,11.7980883 153.483786,11.4838092 152.081734,11.4838092 L104.375307,11.4838092 C102.973255,11.4838092 101.958627,11.7980883 101.331393,12.426656 C100.70416,13.0552237 100.390547,14.0720092 100.390547,15.4770428 L100.390547,56.9623035 C100.390547,58.3673372 100.70416,59.3841226 101.331393,60.0126903 C101.958627,60.641258 102.973255,60.9555372 104.375307,60.9555372 L131.825873,60.9555372 C132.711379,60.9555372 133.430842,61.1588942 133.984284,61.5656145 C134.537726,61.9723348 134.814442,62.6193801 134.814442,63.5067698 L134.814442,67.8327729 C134.814442,68.7201626 134.537726,69.3672078 133.984284,69.7739281 C133.430842,70.1806484 132.711379,70.3840055 131.825873,70.3840055 L103.268429,70.3840055 C101.866377,70.3840055 100.851749,70.6982846 100.224516,71.3268523 C99.5972819,71.95542 99.2836697,72.9722055 99.2836697,74.3772391 L99.2836697,87.3552485 C99.2836697,88.7602822 99.5972819,89.7770676 100.224516,90.4056353 C100.851749,91.034203 101.866377,91.3484821 103.268429,91.3484821 L138.467138,91.3484821 Z M194.032396,104.548338 L171.673468,104.548338 C169.902455,104.548338 168.611111,104.141624 167.799396,103.328183 C166.987682,102.514743 166.581831,101.220652 166.581831,99.4458726 L166.581831,76.9284717 C166.581831,75.9671329 166.710965,75.1352176 166.969238,74.4327007 C167.227511,73.7301839 167.578018,73.1940606 168.020772,72.8243149 L182.410181,60.7336908 C182.779142,60.4378943 183.258784,60.1975632 183.849122,60.0126903 C184.43946,59.8278175 185.140475,59.7353824 185.95219,59.7353824 L208.311118,59.7353824 C210.082131,59.7353824 211.373476,60.1236096 212.18519,60.9000756 C212.996904,61.6765416 213.402755,62.9891191 213.402755,64.8378476 L213.402755,87.3552485 C213.402755,88.3165873 213.273621,89.1300157 213.015348,89.7955579 C212.757075,90.4611002 212.369672,91.0157104 211.853127,91.4594053 L197.463717,103.439106 C197.168548,103.734903 196.707354,103.993721 196.08012,104.215568 C195.452886,104.437416 194.770319,104.548338 194.032396,104.548338 Z M208.311118,91.3484821 C209.71317,91.3484821 210.727798,91.034203 211.355032,90.4056353 C211.982266,89.7770676 212.295878,88.7602822 212.295878,87.3552485 L212.295878,64.8378476 C212.295878,63.432814 211.982266,62.4160285 211.355032,61.7874608 C210.727798,61.1588931 209.71317,60.844614 208.311118,60.844614 L185.95219,60.844614 C184.550138,60.844614 183.53551,61.1588931 182.908276,61.7874608 C182.281042,62.4160285 181.96743,63.432814 181.96743,64.8378476 L181.96743,87.3552485 C181.96743,88.7602822 182.281042,89.7770676 182.908276,90.4056353 C183.53551,91.034203 184.550138,91.3484821 185.95219,91.3484821 L208.311118,91.3484821 Z M254.799979,106.212185 C247.715927,106.212185 241.923325,105.472705 237.422,103.993722 C232.920675,102.514739 229.415598,100.536629 226.906663,98.0593331 C224.397727,95.5820369 222.700532,92.7165507 221.815025,89.4627885 C220.929519,86.2090263 220.486772,82.8443908 220.486772,79.3687812 L220.486772,46.3136804 C220.486772,42.5422743 221.021758,39.1036908 222.091745,35.9978269 C223.161732,32.8919629 224.951166,30.3037818 227.460102,28.2332059 L241.738823,16.1425818 C243.878797,14.2938532 246.701307,12.8703536 250.206437,11.8720402 C253.711567,10.8737268 258.009899,10.3745776 263.101562,10.3745776 L288.559748,10.3745776 C290.404553,10.3745776 291.714345,10.7812918 292.489163,11.5947323 C293.263982,12.4081729 293.651385,13.7022634 293.651385,15.4770428 L293.651385,28.5659753 C293.651385,29.5273142 293.522251,30.3407425 293.263978,31.0062848 C293.005705,31.6718271 292.618302,32.2264373 292.101756,32.6701321 L284.021549,39.4364447 C290.884225,40.3977836 295.606856,42.6162245 298.189583,46.0918341 C300.772311,49.5674438 302.063655,54.1891957 302.063655,59.9572287 L302.063655,70.6058518 C302.063655,74.0814614 301.584013,77.2612268 300.624714,80.1452433 C299.665415,83.0292598 297.931324,85.5065189 295.422389,87.5770948 L281.03298,99.6677189 C278.597837,101.738295 275.258789,103.346665 271.015737,104.492876 C266.772685,105.639088 261.367486,106.212185 254.799979,106.212185 Z M269.078701,93.0123295 C275.424831,93.0123295 280.664,92.4762063 284.796364,91.4039437 C288.928728,90.3316812 292.193984,88.8157465 294.592231,86.8560943 C296.990478,84.896442 298.650778,82.548592 299.57318,79.8124738 C300.495583,77.0763556 300.956777,74.0075123 300.956777,70.6058518 L300.956777,59.9572287 C300.956777,53.3757552 299.112,48.4027501 295.422389,45.0380641 C291.732779,41.6733782 284.907101,39.9910605 274.945153,39.9910605 C271.993464,39.9910605 269.355432,40.1389566 267.030977,40.4347531 C264.706523,40.7305497 262.65882,41.1372639 260.887807,41.6549079 L260.887807,39.2145984 C260.887807,36.4784802 261.367449,34.6852404 262.326747,33.8348253 C263.286046,32.9844102 265.130824,32.559209 267.861136,32.559209 L288.559748,32.559209 C289.9618,32.559209 290.976428,32.2449299 291.603661,31.6163622 C292.230895,30.9877945 292.544507,29.971009 292.544507,28.5659753 L292.544507,15.4770428 C292.544507,14.0720092 292.230895,13.0552237 291.603661,12.426656 C290.976428,11.7980883 289.9618,11.4838092 288.559748,11.4838092 L263.101562,11.4838092 C252.69686,11.4838092 245.55757,13.5913281 241.683479,17.8064291 C237.809388,22.0215302 235.872372,27.4936845 235.872372,34.2230563 L235.872372,70.6058518 C235.872372,74.0075123 236.333566,77.0763556 237.255969,79.8124738 C238.178371,82.548592 239.857119,84.896442 242.292262,86.8560943 C244.727405,88.8157465 248.103348,90.3316812 252.420193,91.4039437 C256.737037,92.4762063 262.289818,93.0123295 269.078701,93.0123295 Z M260.887807,62.286615 C260.887807,61.1773779 261.330553,60.2345405 262.21606,59.4580745 C263.101566,58.6816086 265.130822,58.2933814 268.303887,58.2933814 C271.624536,58.2933814 273.727583,58.6816086 274.613089,59.4580745 C275.498596,60.2345405 275.941343,61.1773779 275.941343,62.286615 L275.941343,68.8310813 C275.941343,70.0142675 275.498596,70.994079 274.613089,71.7705449 C273.727583,72.5470109 271.624536,72.9352381 268.303887,72.9352381 C265.130822,72.9352381 263.101566,72.5470109 262.21606,71.7705449 C261.330553,70.994079 260.887807,70.0142675 260.887807,68.8310813 L260.887807,62.286615 Z" id="$5.6-copy" fill="#2D2D2D"></path>
    </g>
</svg>