
<svg width="226px" height="232px" viewBox="0 0 226 232" version="1.1" xmlns="http://www.w3.org/2000/svg" xmlns:xlink="http://www.w3.org/1999/xlink">

    <defs>
        <polygon id="path-1" points="177.242974 230.99784 0.332209835 230.99784 0.332209835 0.270382721 177.242974 0.270382721 177.242974 230.99784"></polygon>
        <polygon id="path-3" points="0 2.63794346 0 0.188113147 11.5918958 0.188113147 11.5918958 2.63794346 5.30467549e-16 2.63794346"></polygon>
        <polygon id="path-5" points="0 2.84358665 0 0.393756343 11.5918958 0.393756343 11.5918958 2.84358665 5.30467549e-16 2.84358665"></polygon>
    </defs>
    <g id="Desktop-Design" stroke="none" stroke-width="1" fill="none" fill-rule="evenodd">
        <g id="1.01-desktop-homepage" transform="translate(-179.000000, -1460.000000)">
            <g id="Page-1" transform="translate(179.000000, 1460.000000)">
                <path d="M93.512035,131.823001 C93.512035,131.823001 87.8790727,148.14117 88.6958798,156.016643 C89.5126869,163.891615 95.0504386,180.910293 95.0504386,180.910293 L101.299263,179.868548 C101.299263,179.868548 102.932878,165.292634 105.927002,150.905127 L108.921126,136.517118 L93.512035,131.823001 Z" id="Fill-1" fill="#704D35"></path>
                <path d="M52.2555596,131.243853 C56.8928191,128.657279 63.4453157,141.939905 63.4453157,141.939905 L107.53085,202.523473 C107.53085,202.523473 129.244389,223.529244 124.657741,227.563438 C120.070593,231.597633 93.0012049,198.149045 93.0012049,198.149045 L55.4781894,141.925875 C55.4781894,141.925875 43.0702381,136.367896 52.2555596,131.243853" id="Fill-3" fill="#CAA177"></path>
                <path d="M93.5045685,175.941735 L93.5045685,184.959169 L98.7677126,192.512448 C98.7677126,192.512448 84.8208568,192.030409 87.0808568,194.955212 C89.3408568,197.880517 95.0154111,202.659316 95.0154111,202.659316 L108.876577,195.202244 L103.452577,176.985484 C103.452577,176.985484 96.5192381,180.038063 93.5045685,175.941735" id="Fill-5" fill="#000000"></path>
                <path d="M204.758756,166.417308 C204.758756,166.417308 203.238894,181.863096 208.419355,182.659312 C213.600317,183.455528 224.622703,185.061489 223.770818,180.670025 C222.918432,176.278561 214.184109,162.948332 214.184109,162.948332 C214.184109,162.948332 206.419931,169.731952 204.758756,166.417308" id="Fill-7" fill="#000000"></path>
                <path d="M104.111535,109.333833 C104.111535,109.333833 112.207948,66.4063171 123.528493,62.1100579 C134.849039,57.8142998 162.009628,58.235708 162.009628,58.235708 C162.009628,58.235708 181.949744,59.6191896 187.456928,67.6469909 C192.963611,75.6747922 208.663846,114.638265 208.663846,114.638265 L183.296724,122.281738 L190.552276,144.445004 C190.552276,144.445004 189.671327,165.586568 191.414684,168.962343 C193.158041,172.337617 187.545624,176.985635 187.545624,176.985635 C187.545624,176.985635 200.07334,215.561773 197.066688,217.566594 C194.060036,219.570913 142.545566,237.371777 138.872941,229.09093 C135.200817,220.810084 123.905327,201.24141 124.403429,197.924261 C124.902032,194.607613 130.258883,181.493851 130.258883,181.493851 C130.258883,181.493851 117.891021,156.936425 117.891021,154.179984 C117.891021,151.424045 106.366023,133.139138 106.366023,133.139138 L97.0955131,128.875449 L104.111535,109.333833 Z" id="Fill-9" fill="#EB3F4A"></path>
                <path d="M138.934627,41.8128138 C138.934627,41.8128138 129.323865,20.5119067 132.169661,15.3182134 C135.015457,10.1245201 150.415027,-1.53911706 158.210273,0.169565443 C166.005018,1.87824795 173.511124,13.4391637 179.148596,19.8279326 C179.148596,19.8279326 198.121071,24.501505 193.708308,25.0772458 C189.296047,25.6529866 173.511124,29.411086 173.511124,29.411086 C173.511124,29.411086 156.786623,30.3506108 154.343718,30.3506108 C151.900814,30.3506108 138.934627,41.8128138 138.934627,41.8128138" id="Fill-11" fill="#EB3F4A"></path>
                <path d="M133.91392,58.2244337 C133.91392,58.2244337 133.932962,57.9232847 133.967538,57.4001572 C134.157459,54.5134359 134.823432,44.8666454 135.417246,41.8130644 C136.118297,38.2057901 151.127002,28.8531335 154.343618,30.3508613 C157.560235,31.8480881 170.752421,33.5161832 170.752421,33.5161832 L174.691636,40.5017382 L170.933321,41.8130644 C170.933321,41.8130644 174.593419,55.1923991 174.234124,56.0742998 L173.87533,56.9556994 L169.237569,58.6202868" id="Fill-13" fill="#704D35"></path>
                <path d="M154.645536,30.4298816 C154.645536,30.4298816 154.319314,40.100724 155.634725,44.5548233 C156.950135,49.0094238 159.580955,58.7599378 162.211776,58.7699594 C164.842596,58.7804821 174.990046,59.4378989 174.990046,55.9619076 L174.990046,52.4854151 L172.836782,52.2038082 L160.70845,40.6519119 C160.70845,40.6519119 156.345297,32.4397132 156.386388,31.4701235 C156.42798,30.5005339 154.645536,30.4298816 154.645536,30.4298816" id="Fill-15" fill="#000000"></path>
                <path d="M174.990247,119.896898 C174.990247,119.896898 184.696721,147.784 191.438637,151.921417 C198.181054,156.058834 206.073515,164.5346 206.073515,164.5346 C206.073515,164.5346 216.125754,163.451767 214.183958,158.877408 C212.242663,154.303551 193.48316,116.338229 193.48316,116.338229 L174.990247,119.896898 Z" id="Fill-17" fill="#704D35"></path>
                <path d="M117.174586,122.622222 C118.76761,122.307544 121.984227,122.650784 124.029752,122.963457 L124.029752,127.393004 C134.751974,125.685825 129.731867,106.901842 117.534883,112.058956 C117.475752,104.560797 118.805193,96.5169607 119.699672,90.2509564 C125.304071,91.1358635 128.839393,92.0067404 135.936094,91.6143948 C136.746386,94.4770644 136.286369,98.9476994 135.574794,101.496192 C133.136901,101.48617 132.911402,100.922956 130.52412,101.496192 C129.813548,100.277565 130.69149,99.6777728 130.52412,98.0883473 C129.395122,97.5642177 127.730941,97.5461788 126.194541,97.4068786 C125.078071,99.6467058 125.07757,102.939302 125.112147,106.266473 C144.686954,107.404926 137.797211,140.006187 117.896182,131.823051 C116.359783,128.618144 117.119464,126.634369 117.174586,122.622222" id="Fill-19" fill="#000000"></path>
                <path d="M123.668804,186.002016 C124.202484,182.744496 128.727495,173.792703 132.688759,178.165127 C129.313291,180.218552 126.929518,184.969792 123.668804,186.002016" id="Fill-21" fill="#000000"></path>
                <path d="M135.936194,131.823001 C138.336504,136.131787 136.573103,146.486103 136.65779,150.905127 C134.030478,145.748012 134.917941,137.750777 135.936194,131.823001" id="Fill-23" fill="#000000"></path>
                <path d="M135.936194,157.038194 C135.833968,156.487508 136.276948,156.451931 136.296491,156.016492 C146.193888,163.934056 168.301799,164.708726 182.479165,168.623663 C180.730296,176.381883 173.10693,167.660587 166.964841,166.579758 C153.799214,164.262263 141.930957,167.210117 135.936194,157.038194" id="Fill-25" fill="#000000"></path>
                <path d="M146.037993,129.43746 C148.44131,125.453875 145.234215,116.754125 146.759589,112.399741 C145.573966,111.702238 143.106006,112.216346 141.348117,112.059006 C140.279753,117.070307 140.371456,123.176968 140.265221,129.096726 C142.528729,129.099732 144.26958,129.90146 146.037993,129.43746 M139.544126,89.9107732 C141.573115,92.8541166 145.294348,92.3560432 150.368073,92.6366479 C153.989084,95.1726134 152.142498,101.655585 151.811266,105.585054 C150.889226,106.122212 148.041926,106.122212 147.120889,105.585054 C146.341665,103.515594 147.245665,100.313693 147.481186,98.0883974 C146.152747,97.6399309 144.689008,97.3187387 142.79131,97.4069287 C141.736476,100.613339 142.105793,105.16565 141.348117,108.652164 C159.363474,105.96838 154.625492,140.354989 138.46123,133.867006 C136.496884,120.825901 138.698255,103.149806 139.544126,89.9107732" id="Fill-27" fill="#000000"></path>
                <path d="M139.905175,66.0580665 C145.24098,63.7335568 153.316345,60.4384553 159.02698,61.6285201 C153.682656,63.7365633 145.833791,66.7310168 139.905175,66.0580665" id="Fill-29" fill="#000000"></path>
                <path d="M159.388229,100.473688 C159.337617,94.8605909 160.782814,90.6595369 160.831422,85.1401417 C162.131298,85.047943 163.326943,85.0549581 162.996211,86.503079 C164.309116,86.8342929 163.162579,84.8430013 164.799701,85.480876 C164.817741,90.2862324 161.744943,95.0770575 161.191719,100.473688 L159.388229,100.473688 Z" id="Fill-31" fill="#000000"></path>
                <path d="M163.356458,119.896898 C169.741083,125.906851 167.801793,139.778246 178.149686,142.045633 C177.341899,143.781875 175.520369,144.560052 172.737212,144.430773 C168.520383,137.720812 164.18429,127.540873 163.356458,119.896898" id="Fill-33" fill="#000000"></path>
                <path d="M164.439204,101.836726 C165.153283,96.7186955 167.629261,93.2637495 169.12958,88.8883197 C167.657824,83.0712829 171.722317,73.9265745 174.902352,69.1247257 C175.026126,73.3538402 172.25249,77.7367862 171.654667,82.4143672 C173.125922,80.7362505 173.896627,78.3972095 177.067141,78.325054 C172.959053,86.307257 174.188773,97.844622 170.933071,104.903836 C170.082188,104.46489 170.262587,104.947931 169.12958,104.5626 C170.754676,101.705944 170.479066,95.8798877 170.933071,92.9771317 C168.650521,95.1367862 168.596902,99.4029806 166.965292,102.17746 C166.00617,102.173952 164.903731,102.306238 164.439204,101.836726" id="Fill-35" fill="#000000"></path>
                <path d="M198.714634,107.970044 C191.156914,112.531375 181.358736,114.976644 170.933171,116.829638 C177.83494,112.007245 189.890612,108.740705 198.714634,107.970044" id="Fill-37" fill="#000000"></path>
                <g id="Group-41" transform="translate(48.607539, 0.704518)">
                    <mask id="mask-2" fill="white">
                        <use xlink:href="#path-1"></use>
                    </mask>
                    <g id="Clip-40"></g>
                    <path d="M167.786559,176.438054 C164.920719,177.269847 163.508595,174.24132 160.931393,173.71218 C159.810413,181.25694 174.241841,182.808283 175.002023,176.438054 C175.561761,171.757968 168.337278,165.179791 166.343366,161.445242 C166.608954,164.583005 162.617624,165.358175 159.848497,164.511851 C160.876271,170.015713 163.968111,173.570374 167.786559,176.438054 M144.694972,115.784335 C139.035451,117.595238 133.330329,119.363549 128.098754,121.57732 C129.87318,124.557743 130.69149,128.442115 132.428333,131.459117 C132.583176,130.356741 131.953282,128.511765 133.149929,128.392508 C135.917553,143.625838 148.755956,151.951782 158.405805,161.785977 C159.43859,161.18919 163.844337,163.499169 164.178076,160.763273 C159.719712,150.663005 150.111956,140.655437 146.860262,129.414711 C152.140444,135.677208 145.291291,119.816024 144.694972,115.784335 M107.171956,31.278711 C107.87,41.637035 118.289051,42.8145728 121.243588,51.0418039 C122.733885,47.9381149 123.24251,42.84113 121.243588,39.7975706 C122.688284,39.1030739 124.466719,39.82513 124.85157,38.7748665 C123.856369,37.5567413 123.132267,36.0820631 122.686781,34.3453201 C116.986169,34.2626419 111.546133,30.3472035 107.171956,31.278711 M109.698045,53.4274454 C112.540834,56.6629184 127.949424,58.0614324 123.047078,51.3830393 C123.037557,52.979981 121.78679,52.9970177 120.521992,52.7459767 C120.537526,52.7489832 109.195934,41.3063222 107.893553,38.7748665 C107.236599,37.4966117 106.988049,31.5026937 105.007167,30.5972423 C106.426306,36.9539421 103.583517,46.4689486 109.698045,53.4274454 M102.48208,42.182711 C103.53942,38.928197 104.528608,35.1420371 103.564475,30.9379767 C102.507637,30.4875058 101.701854,31.1554454 99.9564927,30.9379767 C100.925136,32.958832 103.702781,35.392076 102.48208,37.4119292 C100.273694,36.2779853 98.5769406,32.9753676 95.9872111,33.3231171 C96.2898807,38.0352726 99.298537,40.1909184 102.48208,42.182711 M107.171956,53.7681797 C106.776581,49.9394281 104.215916,48.1550825 103.564475,44.5678514 C99.1086169,43.8011991 95.590333,39.4438082 94.1837211,34.6860544 C88.362843,38.796413 86.3458807,46.4975102 86.6069583,55.4718514 C94.2162931,55.6166635 100.317792,54.3364043 107.171956,53.7681797 M85.8853619,40.8192726 C91.3223907,25.3369054 114.612918,30.6909443 128.098754,23.1005857 C120.481903,19.5313935 113.85875,26.2959724 107.533255,26.8486635 C111.519074,23.3441106 117.477255,21.7015706 121.965184,18.6710393 C116.161845,-16.9236734 59.9164084,16.3485339 85.8853619,40.8192726 M59.1862931,127.369804 C60.6189627,124.088232 62.1102621,120.541588 61.3505814,116.12507 C59.5280492,118.40348 58.0908696,124.599834 59.1862931,127.369804 M49.8055392,203.357571 C56.4261867,209.29186 60.1549361,228.12094 70.0102399,228.913648 C72.5764173,229.119592 75.4723242,226.760007 75.4222133,224.143368 C75.2373042,214.538167 57.6062976,207.448387 55.5783109,198.586789 C53.0597388,199.615506 51.2477299,201.312663 49.8055392,203.357571 M50.1663375,190.749899 C51.3484528,190.730357 51.5453885,189.78081 53.0522222,190.067929 C54.0308874,191.30259 53.7091756,193.764396 54.4954151,195.179445 C56.2372687,194.779584 57.6949938,194.111644 58.1038984,192.45307 C56.464271,189.230124 52.9765548,184.80208 52.6919251,179.163929 C51.0598142,181.165242 47.078506,180.342469 44.3935659,179.845398 C43.8553752,185.805242 47.5109627,187.805553 50.1663375,190.749899 M44.3935659,199.949726 C46.4987233,199.321873 51.640098,198.618357 52.6919251,195.860413 C50.2745769,195.456041 47.5615747,197.559575 44.3935659,197.565087 C44.2181778,198.339756 43.6779827,199.305337 44.3935659,199.949726 M59.1862931,129.755445 C54.8000891,127.764154 48.8594461,127.241527 43.3106701,126.348102 L43.3106701,127.369804 C47.7540004,128.563877 54.4272643,131.113372 59.1862931,129.755445 M52.3306257,177.800992 C49.6256412,162.492499 58.7543375,145.4638 55.9391091,134.86646 C53.544812,136.713942 56.6131002,145.087489 53.0522222,144.748257 C52.7004439,141.446141 52.6092421,137.897493 52.6919251,134.184992 C49.7043153,133.939964 47.5475437,132.909242 44.3935659,132.822054 C43.6188519,144.046244 36.1342931,180.282841 52.3306257,177.800992 M49.8055392,193.475774 C48.2060004,191.018478 45.0795836,193.568975 41.8674772,193.475774 L41.8674772,194.497476 C44.2462399,195.699065 48.4139605,195.169925 49.8055392,193.475774 M6.87055033,143.726556 C7.98902483,143.229484 5.36471885,141.660102 7.23084745,141.340914 C13.8630204,152.078556 21.7604927,163.217061 29.2400404,174.734383 C32.9271978,180.412119 37.3820537,195.126331 47.2799517,191.430867 C34.8760093,174.522927 22.6113752,157.483203 10.4785326,140.318711 C15.3387854,125.427117 -7.42106829,138.888128 6.87055033,143.726556 M38.9815925,131.118383 C40.5585814,124.863402 39.5779118,109.537372 48.3623463,106.924741 C53.3393574,83.1129227 54.8993086,60.1444216 83.3597743,56.4940544 C88.3498142,42.7860112 75.0664262,33.4383654 76.504608,21.0561797 C77.8726346,9.27929849 94.257384,1.98808467 107.893553,0.270382721 C118.986595,2.45408898 120.799606,11.2956441 125.933464,19.0112726 C132.592196,19.5384086 138.099881,21.1513849 143.251779,23.1005857 C139.657827,29.0198428 130.35675,29.5494842 125.573167,34.3453201 C126.661575,36.9759896 130.543162,41.424076 124.490271,41.5012423 C123.372298,48.565467 130.550679,58.9022445 119.800395,57.8569918 C141.607641,66.793251 143.410129,94.6217261 154.797823,113.399696 C151.458435,114.033562 151.032994,118.717657 147.942156,118.510711 C148.359078,136.424819 160.634235,149.130702 168.508156,160.082305 C171.02322,163.580344 178.049264,173.68462 177.166812,177.460759 C175.478076,184.686832 163.786209,181.749502 159.4882,177.800992 C162.551477,161.012309 144.904936,156.570737 138.201105,145.77046 C135.592834,153.712076 133.874533,164.17713 140.005096,169.282132 C137.72455,172.012517 135.139832,174.456283 133.510227,177.800992 C140.864497,184.466357 138.785898,202.14145 141.808586,214.601804 C135.337269,204.583212 139.800643,181.290512 123.047078,179.845398 C124.938763,178.555117 128.247082,181.409268 130.624342,181.890305 C130.186874,176.963687 123.144794,175.324655 117.274808,174.393648 C116.829322,176.562823 118.27051,179.300724 116.191912,180.867601 C107.806861,179.291203 98.1199295,181.531532 92.3797299,183.253242 C90.631863,179.865942 94.6241956,176.08329 94.5445193,172.008508 C88.939118,168.784059 85.9294594,163.107324 82.6381778,157.696663 C88.0787144,160.62297 91.4551845,165.498478 96.7088075,168.601165 C97.0159871,170.593959 93.316302,168.803601 93.1013264,170.304836 C108.898776,167.790918 129.153588,181.049994 136.397615,169.622867 C128.516679,157.078832 140.005096,139.112612 128.098754,127.369804 C127.457335,128.51427 128.469575,129.956378 127.01636,130.777648 C122.249313,123.466391 118.549127,113.33205 116.913508,104.199368 C120.990528,108.41345 120.784071,116.67275 124.490271,121.236586 C133.871526,118.511212 141.643721,114.265061 152.271734,112.717726 C143.546431,96.8790911 138.767859,77.3129227 127.737956,63.6499767 C103.287362,50.6805253 52.7806213,56.2730782 57.0215038,91.5911948 C55.9651667,91.679886 55.9130514,90.821035 54.8567144,90.9097261 C53.5698674,95.8278255 51.8265104,100.314996 50.5271357,105.221571 C53.0567322,104.991074 57.2875925,104.609752 59.9073885,105.561804 C59.8948608,102.921614 54.9724705,102.074789 52.6919251,100.450789 C53.8499871,99.0562834 57.7786789,100.225804 59.1862931,100.791523 C59.4017698,92.8764648 59.1271623,80.8555577 62.0721778,74.894711 C59.4794417,88.9845771 64.5085681,104.704456 64.5982665,123.280992 C64.6854594,141.420085 58.7352953,165.612724 76.504608,172.008508 C73.9339206,173.61497 71.0555525,170.293813 68.9273441,169.282132 C69.4920936,172.229484 72.5443463,173.21561 71.4534328,176.778789 C76.1147455,176.390953 79.8680492,168.365657 85.5245636,170.985804 C82.2438053,174.929804 76.6935259,176.730184 72.5353264,179.845398 C76.7782133,184.21281 71.6333308,189.668568 72.1750293,195.179445 C73.3721778,207.3617 82.0323375,216.80405 84.8024661,228.572914 C80.448333,219.697286 71.080608,207.698426 69.2886435,197.90532 C68.5419916,193.828033 72.4361069,189.29326 72.1750293,185.297648 C71.2344483,170.928681 55.9075392,159.197899 60.6289849,138.955273 C54.8807676,154.938219 50.9109849,180.149052 60.2686878,194.497476 C59.0700359,195.409942 57.7070204,196.167575 56.2999073,196.883117 C60.3694106,207.42634 74.867486,212.821968 79.0301956,222.098962 C80.9980492,226.483912 75.4442621,231.493709 70.0102399,230.958556 C60.1368962,229.984957 54.3576102,209.64462 45.4754594,204.379273 C45.703965,204.514564 42.9583907,201.328197 42.9503729,201.312663 C34.6289627,185.798227 22.9836989,163.628949 11.200129,150.540741 C7.81463902,146.780638 0.7956102,142.439782 0.375681153,139.296007 C-0.423086031,133.3071 10.0130027,127.629864 13.0041202,134.86646 C21.1641734,154.609009 30.6581778,167.751834 42.9503729,181.208335 C42.2377965,171.781519 39.984812,159.125743 39.7026878,148.83707 C39.5438364,143.033562 43.8964661,132.959851 38.9815925,131.118383" id="Fill-39" fill="#000000" mask="url(#mask-2)"></path>
                </g>
                <path d="M117.896282,79.6881417 C119.607067,79.5483404 118.796775,81.790673 119.699773,82.4140164 C120.459954,81.5416363 119.747378,79.2787594 120.782668,78.6654376 C121.725755,78.5697313 122.334101,78.7902065 122.22536,79.6881417 C123.803351,77.6287032 128.886597,75.7251006 131.606615,76.962267 C131.953883,78.7666557 129.69238,78.1072346 129.441325,79.3474073 C130.231072,81.2144311 129.600677,84.4223447 129.802624,86.8440639 C124.762473,86.54993 130.024615,78.3622842 124.390149,79.006673 C124.43575,82.2942583 126.369027,85.4926514 125.473045,88.5477356 C124.102513,88.3653425 123.883027,87.095606 123.669054,85.8213598 C122.635267,85.8679603 123.980744,88.1609019 122.947458,88.2070013 C121.201595,87.8111482 121.405546,85.5733253 120.782668,84.1176881 C118.447001,84.6783965 121.073812,87.2339041 120.061072,88.8879689 C117.490886,87.0535153 117.430753,82.8148803 117.896282,79.6881417" id="Fill-42" fill="#000000"></path>
                <path d="M132.328362,86.8439637 C132.516779,83.2742704 131.917954,78.9599724 132.688659,75.9399637 C134.197998,75.6192726 134.82689,75.2249227 136.296641,75.5992294 C136.346752,76.8013201 137.329426,77.1230134 137.379537,78.3251041 C138.163271,77.3615274 138.222903,75.7144778 139.905125,75.5992294 C142.614619,77.6882315 141.334286,83.8951084 140.987018,87.1846981 C139.388983,86.877035 139.895604,84.5810868 139.182526,83.4361192 C137.137502,83.4356181 138.626295,86.7723093 136.657439,86.8439637 C135.14359,85.5361451 136.950588,82.362305 137.018238,80.3695102 C134.11732,80.587981 134.801333,85.5907629 132.328362,86.8439637" id="Fill-44" fill="#000000"></path>
                <path d="M143.513007,76.2805477 C144.597907,76.6187767 146.132803,76.5325909 146.399392,77.6434851 C148.402324,76.0645823 148.708,78.5574549 150.368173,77.3027508 C151.021619,77.9351136 150.428306,79.7445132 151.450067,80.0286255 C152.250838,79.5360639 151.94867,78.0007551 152.532962,77.3027508 C153.788239,77.7076233 155.23945,77.9270963 155.419348,79.3471568 C154.957326,79.8201762 153.715579,79.5561071 153.254559,80.0286255 C152.714865,82.0144052 154.626093,81.6861978 154.336452,83.43647 C153.862905,83.8734117 153.00651,83.8739127 152.532962,83.43647 C152.149113,85.1496622 152.047889,86.6253425 152.893259,88.5474851 C151.689596,89.4128501 148.511064,88.1877097 149.646576,86.8438134 C148.03902,86.4619905 148.348705,87.8900683 147.842084,88.5474851 C146.631406,88.5555024 146.866927,87.1970747 146.399392,86.503079 C145.517441,86.6929883 145.630692,87.8214203 144.234603,87.5252821 C143.986554,86.2595542 144.060718,86.634362 143.873304,85.1401417 C143.124647,85.2278307 143.775086,86.6368674 143.151707,86.8438134 L142.069814,86.8438134 C141.540643,83.5467076 142.679162,78.4492216 143.513007,76.2805477" id="Fill-46" fill="#000000"></path>
                <path d="M58.6683472,17.9031343 C56.351722,19.8222704 50.4216022,18.7208968 46.6297131,19.5151084 C46.4568306,16.3367585 49.4669902,17.6796527 51.1752696,17.4416397 C53.5249681,17.1139335 55.8896998,15.3451214 58.6683472,17.9031343" id="Fill-48" fill="#F15955"></path>
                <path d="M26.3112106,18.3341132 C24.7367273,20.7643508 17.6660843,20.2317028 14.449969,18.9759965 C17.6605721,17.4196423 23.112133,17.6847136 26.3112106,18.3341132" id="Fill-50" fill="#F15955"></path>
                <g id="Group-54" transform="translate(0.000000, 17.741235)">
                    <mask id="mask-4" fill="white">
                        <use xlink:href="#path-3"></use>
                    </mask>
                    <g id="Clip-53"></g>
                    <path d="M11.5918958,0.706673002 C11.5037007,1.19171836 11.4150044,1.67676371 11.3268093,2.16130799 C7.31743902,1.48384795 2.61403326,3.69361037 -0.000250554324,1.95386091 C3.44437029,-0.897283801 7.11749667,0.514258315 11.5918958,0.706673002" id="Fill-52" fill="#F15955" mask="url(#mask-4)"></path>
                </g>
                <path d="M43.261812,31.0649503 C43.160588,31.5499957 43.0598652,32.03454 42.9586412,32.5195853 C38.3724949,31.8421253 32.9925925,34.0518877 30.0024772,32.3121382 C33.9426945,29.4609935 38.1434882,30.8725356 43.261812,31.0649503" id="Fill-55" fill="#F15955"></path>
                <path d="M68.1184545,16.8463067 C68.0688448,17.3313521 68.019235,17.8158963 67.9701264,18.3009417 C65.7226541,17.6234816 63.0863215,19.8332441 61.6205787,18.0934946 C63.5513503,15.2423499 65.6104058,16.653892 68.1184545,16.8463067" id="Fill-57" fill="#F15955"></path>
                <path d="M25.9695047,32.3485667 C24.6836599,34.2276164 21.4665424,33.0265279 19.3909503,33.7561002 C19.3353273,30.5752449 20.9589193,31.9687482 21.8924847,31.7597978 C23.1768262,31.472178 24.4867242,29.7439533 25.9695047,32.3485667" id="Fill-59" fill="#F15955"></path>
                <path d="M22.164737,46.0616207 C20.7004976,47.9411715 18.7897703,46.395841 16.4255397,47.1254134 C16.4255397,44.8710549 17.515451,45.6818022 18.5788035,45.4728518 C20.0410386,45.185232 20.7871894,44.3554436 22.164737,46.0616207" id="Fill-61" fill="#F15955"></path>
                <path d="M32.1748834,45.8285685 C30.7106439,47.7081192 28.7999166,46.1627888 26.435686,46.8923611 C26.435686,44.6380026 27.5255973,45.4487499 28.5889499,45.2397996 C30.0511849,44.9521797 30.7973357,44.1223914 32.1748834,45.8285685" id="Fill-63" fill="#F15955"></path>
                <path d="M16.0542683,31.8222825 C15.1668049,34.2249607 11.320796,33.5725546 9.58395344,32.2627317 C11.3523659,30.7609952 14.3194302,31.1187663 16.0542683,31.8222825" id="Fill-65" fill="#F15955"></path>
                <path d="M44.1878106,18.2998894 C43.0638239,20.1794402 40.2511011,18.9778505 38.4360856,19.7074229 C38.3879792,16.5265676 39.8071188,17.9200708 40.6234248,17.7111205 C41.7459082,17.4235006 42.8914426,15.695276 44.1878106,18.2998894" id="Fill-67" fill="#F15955"></path>
                <path d="M35.4134984,18.2049348 C34.6377823,20.607613 31.2753432,19.9552069 29.7564829,18.645384 C31.3029042,17.1436475 33.8966426,17.5014186 35.4134984,18.2049348" id="Fill-69" fill="#F15955"></path>
                <path d="M6.47056541,32.0313832 C6.41644568,32.5144242 6.36232594,32.9979663 6.30820621,33.4815084 C4.13239246,32.7359015 1.54266297,34.8654911 0.139558758,33.0816467 C2.05128825,30.2891283 4.03517738,31.7633054 6.47056541,32.0313832" id="Fill-71" fill="#F15955"></path>
                <path d="M53.3596022,31.313987 C53.3054825,31.7970281 53.2513627,32.2805702 53.197243,32.7641123 C51.0214293,32.0185054 48.4316998,34.148095 47.0285956,32.3642505 C48.9403251,29.5717322 50.9242142,31.0459093 53.3596022,31.313987" id="Fill-73" fill="#F15955"></path>
                <path d="M62.0849561,45.1823758 C59.5468408,47.1015119 53.0509694,46.0001382 48.8972798,46.7943499 C48.7078608,43.616 52.0051557,44.9588942 53.8762953,44.7208812 C56.4504905,44.3931749 59.0412222,42.6243629 62.0849561,45.1823758" id="Fill-75" fill="#F15955"></path>
                <path d="M45.8983951,45.0025883 C44.3740226,47.4328259 39.1604882,46.900178 36.046098,45.6444717 C39.1554772,44.0881175 42.8010426,44.3531888 45.8983951,45.0025883" id="Fill-77" fill="#F15955"></path>
                <path d="M12.9196333,45.5476631 C12.8229193,46.0327084 12.7262053,46.5172527 12.6289902,47.0022981 C8.23727406,46.324838 3.08487494,48.5346004 0.221039024,46.794851 C3.99438714,43.9437063 8.01778847,45.3552484 12.9196333,45.5476631" id="Fill-79" fill="#F15955"></path>
                <path d="M77.0735667,43.8499542 C76.9793583,44.3349996 76.8851499,44.8195438 76.7909415,45.3045892 C72.5144803,44.6271292 67.4973805,46.8368916 64.7087109,45.0971421 C68.3833406,42.2459974 72.3005069,43.6575395 77.0735667,43.8499542" id="Fill-81" fill="#F15955"></path>
                <path d="M26.3112106,130.781657 C24.7367273,133.211895 17.6660843,132.679247 14.449969,131.42354 C17.6605721,129.866685 23.112133,130.132257 26.3112106,130.781657" id="Fill-83" fill="#F15955"></path>
                <g id="Group-87" transform="translate(0.000000, 129.983136)">
                    <mask id="mask-6" fill="white">
                        <use xlink:href="#path-5"></use>
                    </mask>
                    <g id="Clip-86"></g>
                    <path d="M11.5918958,0.912316199 C11.5037007,1.39736156 11.4150044,1.88190583 11.3268093,2.36695119 C7.31743902,1.68949114 2.61403326,3.89925356 -0.000250554324,2.1595041 C3.44437029,-0.691640605 7.11749667,0.719901512 11.5918958,0.912316199" id="Fill-85" fill="#F15955" mask="url(#mask-6)"></path>
                </g>
                <path d="M25.9695047,144.79601 C24.6836599,146.675561 21.4665424,145.473971 19.3909503,146.203544 C19.3353273,143.022689 20.9589193,144.416192 21.8924847,144.207241 C23.1768262,143.919622 24.4867242,142.191397 25.9695047,144.79601" id="Fill-88" fill="#F15955"></path>
                <path d="M22.164737,158.509014 C20.7004976,160.388565 18.7897703,158.843235 16.4255397,159.572807 C16.4255397,157.318448 17.515451,158.129196 18.5788035,157.920245 C20.0410386,157.632625 20.7871894,156.802837 22.164737,158.509014" id="Fill-90" fill="#F15955"></path>
                <path d="M32.1748834,158.276112 C30.7106439,160.155162 28.7999166,158.610333 26.435686,159.339905 C26.435686,157.085546 27.5255973,157.896294 28.5889499,157.687343 C30.0511849,157.399724 30.7973357,156.569935 32.1748834,158.276112" id="Fill-92" fill="#F15955"></path>
                <path d="M16.0542683,144.269726 C15.1668049,146.672404 11.320796,146.019998 9.58395344,144.710175 C11.3523659,143.208439 14.3194302,143.56621 16.0542683,144.269726" id="Fill-94" fill="#F15955"></path>
                <path d="M6.47056541,144.478927 C6.41644568,144.961968 6.36232594,145.44551 6.30820621,145.929052 C4.13239246,145.183445 1.54266297,147.313035 0.139558758,145.528689 C2.05128825,142.736672 4.03517738,144.210849 6.47056541,144.478927" id="Fill-96" fill="#F15955"></path>
                <path d="M45.8983951,157.449982 C44.3740226,159.880219 39.1604882,159.347571 36.046098,158.091865 C39.1554772,156.535511 42.8010426,156.800582 45.8983951,157.449982" id="Fill-98" fill="#F15955"></path>
                <path d="M12.9196333,157.995107 C12.8229193,158.480152 12.7262053,158.965197 12.6289902,159.449742 C8.23727406,158.772282 3.08487494,160.982044 0.221039024,159.242295 C3.99438714,156.39115 8.01778847,157.802692 12.9196333,157.995107" id="Fill-100" fill="#F15955"></path>
                <path d="M68.8087818,58.8042834 C52.9181255,57.9940371 45.2401388,58.8383568 40.1619038,58.9941927 C35.0836687,59.1505296 30.1101654,57.7931041 12.1123472,59.2166721 C7.55326075,58.9581149 3.77239601,57.7339767 0.221039024,60.4899162 C2.16784612,61.705035 5.20155787,60.9955058 8.31143814,60.6868406 C24.2020945,61.4970868 24.5453539,60.1702272 34.1435889,60.3481106 C43.7413228,60.526495 48.2507996,60.7073849 65.0078727,60.2744518 C68.2199792,60.4568449 73.1999969,60.639238 75.8503605,60.1196181 C76.9613184,59.9021495 76.756365,59.3239032 76.5784714,58.9165253 C74.7424093,58.2300458 71.9186621,58.4956181 68.8087818,58.8042834" id="Fill-102" fill="#F15955"></path>
                <path d="M53.5191051,110.563032 C43.0519477,109.583922 37.9942581,110.604121 34.6493579,110.792527 C31.3044576,110.980933 28.0282093,109.341901 16.1729809,111.060605 C13.1703379,110.748933 10.6798279,109.270747 8.34065277,112.59892 C9.6229898,114.066082 11.62091,113.209737 13.6694421,112.836432 C24.1365996,113.815041 24.3625996,112.212587 30.6850874,112.427551 C37.0070741,112.643015 39.9776461,112.861486 51.0155663,112.33886 C53.131247,112.558834 56.4115042,112.778808 58.1573667,112.151957 C58.8894865,111.88889 58.7541871,111.190384 58.6369277,110.698825 C57.4277525,109.870039 55.5676373,110.190229 53.5191051,110.563032" id="Fill-104" fill="#F15955"></path>
                <path d="M4.35749047,109.969854 C5.20386297,100.630225 4.32191175,96.1169987 4.15905144,93.1325667 C3.99619113,90.1481348 5.41282528,87.2248346 3.92703814,76.6465365 C4.19663459,73.9667611 5.47496275,71.7444717 2.5975969,69.6574739 C1.3287898,70.8014393 2.06942838,72.5847827 2.39164124,74.4122212 C1.54576984,83.7523508 2.93183636,83.9537849 2.74542395,89.5954436 C2.55951264,95.2366013 2.37009357,97.886813 2.82209357,107.73604 C2.63217339,109.623608 2.44175211,112.550917 2.98395166,114.108774 C3.21145499,114.761681 3.8147898,114.641422 4.24023104,114.536696 C4.95681641,113.45737 4.68020443,111.797794 4.35749047,109.969854" id="Fill-106" fill="#F15955"></path>
                <path d="M100.781418,73.5067197 C96.5119721,69.1824 93.878145,68.1025728 92.3222027,67.0598255 C90.7662603,66.0165771 89.939431,63.7617175 84.0223401,60.7762834 C82.8096572,59.5145641 82.2699632,57.6430307 79.9593512,59.0761192 C79.5539543,59.6278082 79.4306816,59.9284562 79.7007792,60.1850091 C80.1507747,60.6129313 81.5754266,60.811359 82.23238,61.1014842 C86.5018257,65.4258039 87.2154044,64.4206376 89.9379277,66.7787197 C92.660451,69.1363006 93.8946816,70.323359 98.9914576,73.8319205 C100.204141,75.0936397 100.743835,76.9651732 103.054948,75.5320847 C103.04693,74.0909788 101.832744,73.9712207 100.781418,73.5067197" id="Fill-108" fill="#F15955"></path>
                <path d="M20.1638102,91.085505 C20.2730519,91.6667577 20.3822936,92.2485114 20.4915353,92.8297641 C16.9326616,94.9588527 13.88542,100.66966 11.0777082,100.669159 C12.8461206,95.1683041 16.4034909,94.0644251 20.1638102,91.085505" id="Fill-110" fill="#F15955"></path>
                <path d="M28.6958865,82.9981253 C28.8051282,83.579378 28.9143698,84.1611317 29.0236115,84.7423844 C25.4647379,86.871473 22.4174962,92.5822808 19.6097845,92.5817797 C21.3781969,87.0809244 24.9355672,85.9770454 28.6958865,82.9981253" id="Fill-112" fill="#F15955"></path>
                <path d="M53.4270013,82.7718376 C53.536243,83.3530903 53.6454847,83.9348441 53.7547264,84.5160968 C50.1958528,86.6451853 47.1486111,92.3559931 44.3408993,92.355492 C46.1093118,86.8546367 49.666682,85.7507577 53.4270013,82.7718376" id="Fill-114" fill="#F15955"></path>
                <path d="M41.3145038,92.1738004 C40.9692399,92.5135326 40.6239761,92.8537659 40.2782111,93.1934981 C37.7105304,89.0555801 32.9625259,86.7932043 32.0384816,82.9749754 C36.228251,83.5687551 38.1229428,88.0418955 41.3145038,92.1738004" id="Fill-116" fill="#F15955"></path>
                <path d="M61.9591778,74.6844579 C62.0684195,75.2657106 62.1776612,75.8474644 62.2869029,76.4287171 C58.7280293,78.5578056 55.6807876,84.2686134 52.8730758,84.2681123 C54.6414882,78.767257 58.1988585,77.663378 61.9591778,74.6844579" id="Fill-118" fill="#F15955"></path>
            </g>
        </g>
    </g>
</svg>