<svg width="201px" height="282px" viewBox="0 0 201 282" version="1.1" xmlns="http://www.w3.org/2000/svg" xmlns:xlink="http://www.w3.org/1999/xlink">
    <defs>
        <polygon id="path-1" points="124.564167 187.369128 0.264989371 187.369128 0.264989371 0.41377349 124.564167 0.41377349 124.564167 187.369128"></polygon>
    </defs>
    <g id="Desktop-Design" stroke="none" stroke-width="1" fill="none" fill-rule="evenodd">
        <g id="1.01-desktop-homepage" transform="translate(-552.000000, -1405.000000)">
            <g id="Page-1" transform="translate(552.000000, 1405.000000)">
                <g id="Group-3" transform="translate(32.632941, 94.375842)">
                    <mask id="mask-2" fill="white">
                        <use xlink:href="#path-1"></use>
                    </mask>
                    <g id="Clip-2"></g>
                    <path d="M0.318525882,17.2107534 C2.34697059,12.955203 19.3591376,4.02819966 24.0270671,3.04924329 C28.6949965,2.06981376 53.9230976,0.41377349 53.9230976,0.41377349 C53.9230976,0.41377349 51.4363729,10.7181292 52.3704318,16.2644446 C53.3040176,21.8102869 62.0373494,29.5127668 62.0373494,29.5127668 C62.0373494,29.5127668 77.2636906,20.1504614 84.0291141,22.3260252 C90.7945376,24.5015889 102.660159,28.0478809 101.527938,37.8383909 C100.395244,47.628901 97.5079376,51.0412903 97.5079376,51.0412903 L84.1544435,55.6100688 L78.5704271,86.0542399 L123.879138,163.888133 C123.879138,163.888133 125.420453,162.469143 123.879138,164.834914 C122.337822,167.200686 93.1086388,170.766378 88.80582,169.45574 C84.5034741,168.145102 67.0126906,152.063059 67.0126906,152.063059 C67.0126906,152.063059 57.9695824,179.266122 56.4566435,179.975854 C54.9437047,180.685586 16.0424012,196.250471 17.9701094,179.975854 C19.8982906,163.701237 23.7295871,156.79129 23.7295871,156.79129 C23.7295871,156.79129 10.5510812,136.895622 14.7753918,125.906612 C19.0001753,114.917129 19.4731165,111.845411 19.4731165,111.845411 L14.7753918,92.2057198 C14.7753918,92.2057198 12.6599259,83.7736359 12.5194624,75.8057164 C12.3789988,67.8382701 10.7237047,54.1167936 10.7237047,54.1167936 L9.54135176,49.6218272 L12.1425282,33.2980017 L4.78829294,34.9805386 C4.78829294,34.9805386 -0.309067059,33.118203 0.318525882,28.0933037 C0.946118824,23.0684044 0.318525882,17.2107534 0.318525882,17.2107534" id="Fill-1" fill="#EB3F4A" mask="url(#mask-2)"></path>
                </g>
                <path d="M88.9253795,86.163444 C86.2376548,79.9589708 83.7253913,72.6056789 90.6303325,65.0082393 C97.5352736,57.4103265 110.806003,55.450048 117.871744,58.5690815 C124.937485,61.6885883 130.168215,73.9707292 130.168215,73.9707292 C130.168215,73.9707292 147.719535,79.9977695 145.794191,82.0578836 C143.869321,84.1179977 134.188688,87.2370312 130.168215,86.163444 C126.148215,85.0898567 123.230168,84.143548 116.058015,83.6703936 C108.885862,83.1972393 88.9253795,86.163444 88.9253795,86.163444" id="Fill-4" fill="#EB3F4A"></path>
                <path d="M200.863131,94.7571574 C200.77942,95.1271641 200.186352,94.9885299 200.182096,95.4384997 C196.424578,94.2447312 193.661656,97.0694628 191.328164,93.735144 C194.882317,93.3939997 196.059467,93.6778923 200.523086,93.735144 C200.493764,94.2187077 200.466333,94.6999057 200.863131,94.7571574" id="Fill-6" fill="#F15955"></path>
                <path d="M196.436922,72.2727201 C194.669068,74.0588779 189.158357,74.6503208 185.880402,76.0201027 C185.204096,73.9547839 188.12971,74.1733812 189.626096,73.6358779 C191.684336,72.8953913 193.520293,71.1981866 196.436922,72.2727201" id="Fill-8" fill="#F15955"></path>
                <path d="M190.988166,115.197284 C188.548736,116.889284 183.520425,114.623348 181.453199,112.812586 C179.949246,112.841921 178.560218,112.755334 178.729531,111.10923 C183.766355,111.174052 187.027284,113.275804 190.988166,115.197284" id="Fill-10" fill="#F15955"></path>
                <path d="M183.156308,93.7351913 C181.081988,96.3261846 176.235287,95.1305235 172.600261,94.7572047 C174.482567,92.7221678 181.09192,93.5572852 183.156308,93.7351913" id="Fill-12" fill="#F15955"></path>
                <path d="M178.049063,76.7016342 C177.031767,78.6604933 170.589362,79.882651 167.492543,79.7676745 C170.123515,78.0222081 175.067169,76.9841074 178.049063,76.7016342" id="Fill-14" fill="#F15955"></path>
                <path d="M173.281296,110.087406 C170.483849,111.993745 164.596677,109.014765 162.385204,107.021366 C165.920912,106.779111 169.786734,109.152926 173.281296,110.087406" id="Fill-16" fill="#F15955"></path>
                <path d="M167.152215,94.7571574 C165.016412,96.0337279 158.9779,97.0689896 157.617248,95.0978285 C159.187412,92.9889795 165.034384,93.5610232 167.152215,94.7571574" id="Fill-18" fill="#F15955"></path>
                <path d="M160.341484,81.4711721 L160.341484,82.4931856 C156.627004,82.9374775 152.761182,85.4475614 150.126427,84.8778836 C152.755507,82.2234876 156.287905,82.3403567 160.341484,81.4711721" id="Fill-20" fill="#F15955"></path>
                <path d="M157.276588,104.636573 C157.381108,105.422009 156.292871,105.015097 156.255508,105.658587 C153.669466,105.406868 151.541704,104.696664 150.126191,103.273889 C148.512988,102.730234 146.171929,102.914764 146.039506,100.889191 C150.280369,101.643872 153.378134,103.540748 157.276588,104.636573" id="Fill-22" fill="#F15955"></path>
                <path d="M149.445344,94.0758151 C148.987537,94.7538453 148.795996,95.6977883 148.423319,96.4605131 C145.786672,95.7834292 142.002669,97.4593419 140.591413,95.0978285 C143.324067,94.5376138 146.359876,94.2825836 149.445344,94.0758151" id="Fill-24" fill="#F15955"></path>
                <path d="M51.7217929,116.702009 C51.7217929,116.702009 71.1043412,6.71775101 73.9557035,2.92683826 C76.8070659,-0.864547651 82.7803129,-2.01478591 83.8931435,5.93799262 C85.0055012,13.890298 55.1936541,115.683781 55.1936541,115.683781 L51.7217929,116.702009 Z" id="Fill-26" fill="#704D35"></path>
                <path d="M88.5755449,89.2666742 C81.9907849,95.2615399 80.6433755,97.683144 80.5766908,103.298067 C80.5100061,108.912516 85.2077308,125.380181 91.1440885,124.6061 C97.0804461,123.83202 106.637641,111.781724 106.637641,111.781724 C106.637641,111.781724 118.228957,112.577097 119.421241,112.153624 C120.613053,111.730624 123.221797,98.5816641 123.221797,98.5816641 C123.221797,98.5816641 130.109712,102.545751 128.342331,98.2343688 C126.575423,93.9225131 111.000051,84.4755131 111.000051,84.4755131 L88.5755449,89.2666742 Z" id="Fill-28" fill="#D2A179"></path>
                <path d="M16.8989922,127.200311 C16.8989922,127.200311 -1.22269482,135.024865 0.153091059,146.37158 C0.153091059,146.37158 5.22538518,149.628774 11.8948016,148.523959 C18.5642181,147.419143 37.708404,139.02917 37.708404,139.02917 C37.708404,139.02917 35.4907828,151.065271 38.7280652,151.198227 C41.9648746,151.331184 54.1856746,149.91172 54.1856746,149.91172 C54.1856746,149.91172 70.7674652,156.535882 75.6382864,159.847962 C80.5095805,163.160043 95.6441711,165.05266 100.846051,162.923465 C106.048404,160.794271 121.182522,142.577828 121.182522,142.577828 C121.182522,142.577828 110.083538,134.534204 103.927736,135.007358 C97.7719334,135.480512 93.996444,140.315204 93.996444,140.315204 L91.3872275,145.512804 L58.9907569,140.901915 L54.1856746,127.200311 C54.1856746,127.200311 57.8443475,113.727714 56.5191664,114.705724 C55.1935122,115.683734 43.2124934,116.081184 42.4704487,120.339573 C41.728404,124.597962 39.3636981,128.619774 39.3636981,128.619774 L31.7966393,129.329506 L27.9601405,121.285882 L16.8989922,127.200311 Z" id="Fill-30" fill="#D2A179"></path>
                <path d="M45.6651191,145.002886 C41.7283567,144.293154 38.0725214,150.515607 44.8663214,150.864322 C51.6601214,151.213037 49.6018814,145.712617 45.6651191,145.002886" id="Fill-32" fill="#704D35"></path>
                <path d="M14.0048287,140.90182 C14.3391981,139.586924 13.9669934,139.601592 14.0048287,138.006116 C21.2498146,136.012243 28.7918075,133.471404 35.7979581,132.214233 C29.4094687,135.938431 22.1001628,138.791079 14.0048287,140.90182" id="Fill-34" fill="#000000"></path>
                <path d="M42.9487341,155.059356 C45.2434447,160.283927 46.5359929,172.253312 44.99184,176.938487 C42.2237153,172.00538 42.0648071,161.31351 42.9487341,155.059356" id="Fill-36" fill="#000000"></path>
                <path d="M54.1856746,178.869714 C53.0212934,179.372204 52.6003758,179.619663 51.1210158,179.191459 C50.0800722,174.849794 48.4914628,171.478569 47.0352769,166.642932 C46.488084,164.827439 43.4423428,154.380663 45.6727334,154.415677 C47.3639711,154.442173 49.7452299,164.458851 50.4399805,166.321187 C52.2130369,171.071657 53.7193546,173.941811 54.1856746,178.869714" id="Fill-38" fill="#000000"></path>
                <path d="M63.3799821,176.295517 C68.5350409,176.911091 76.0585892,184.733752 80.0648739,188.522299 C73.0336574,190.563014 68.2181704,180.497601 63.3799821,176.295517" id="Fill-40" fill="#000000"></path>
                <path d="M65.7635584,171.791088 C69.4009489,173.930692 73.7784925,175.371447 75.6385701,179.191222 C71.2771066,177.735326 67.3498031,175.869205 65.7635584,171.791088" id="Fill-42" fill="#000000"></path>
                <path d="M70.1900513,212.33242 C69.8589925,211.161837 71.8491289,212.184323 71.2116042,210.723696 C75.104856,212.300719 83.3756513,209.740008 83.8107572,214.585108 C79.7453548,215.864518 74.7657572,212.789014 70.1900513,212.33242" id="Fill-44" fill="#000000"></path>
                <path d="M72.2330626,220.376518 C77.2405638,219.596286 83.7312085,223.812092 84.1511802,227.776652 C78.7691096,226.642028 76.1163826,222.927766 72.2330626,220.376518" id="Fill-46" fill="#000000"></path>
                <path d="M73.5954169,151.520067 C77.8235111,151.529057 84.6849416,154.528382 87.5566405,157.954966 C81.9801911,157.955439 77.8769534,153.812027 73.5954169,151.520067" id="Fill-48" fill="#000000"></path>
                <path d="M87.5564513,208.793462 C92.1529666,212.416879 89.1318184,222.984781 89.6000301,228.742123 C85.9143995,226.200811 85.8812936,214.301452 87.5564513,208.793462" id="Fill-50" fill="#000000"></path>
                <path d="M95.0478868,203.001391 C98.9051951,201.3198 111.392734,203.001391 111.392734,203.001391 C111.392734,203.001391 107.568059,204.445458 106.284969,204.932334 C106.232,205.840317 107.247877,205.738115 107.64704,206.219313 C103.604339,206.283662 98.5400845,204.529679 95.0478868,203.001391" id="Fill-52" fill="#000000"></path>
                <path d="M98.4532525,216.515247 C104.517777,221.939489 110.922347,227.041985 116.500688,232.925187 C107.929575,230.054086 99.6233089,224.329391 98.4532525,216.515247" id="Fill-54" fill="#000000"></path>
                <path d="M122.289204,244.508762 C118.691068,244.866467 113.396491,243.09545 108.668498,242.577819 C108.646743,243.785309 112.111983,244.467125 112.414192,246.439232 C107.696604,246.918064 98.0419828,238.158085 101.517628,237.429427 C107.168329,236.246541 116.061988,243.772061 122.289204,244.508762" id="Fill-56" fill="#000000"></path>
                <path d="M125.013582,143.154035 C120.683805,137.381079 113.796363,128.921552 104.242005,133.179468 C113.864939,133.739683 119.461725,139.819716 125.013582,143.154035 M86.5350875,84.5940856 C96.2417322,90.2738305 107.187956,81.6993272 115.479088,82.9853607 C123.464699,84.2231326 131.454568,90.4271326 139.655368,83.3066326 C133.47308,77.7934379 123.806636,76.5064581 117.181676,81.3761628 C118.877643,77.93775 122.853186,76.6536091 125.694617,74.2977735 C122.613878,48.4498238 75.9412052,62.6297869 86.5350875,84.5940856 M83.8109464,134.466921 C86.9394522,133.776116 88.8340546,131.919931 91.6428522,130.927253 C91.1122122,129.712666 90.6889299,128.396824 89.5997464,127.709804 C87.3726664,128.23122 84.0914005,132.105881 83.8109464,134.466921 M104.242005,106.794961 C101.693798,105.556716 103.200116,100.486394 101.858382,98.1078473 C98.0256664,96.6869648 90.5356969,95.9370151 85.8540522,94.2464346 C77.4654946,101.715649 80.7117628,119.801029 91.9833699,122.883156 C95.2083558,118.638015 101.496109,117.28574 104.92304,113.230807 C103.506582,112.257529 100.015803,111.727122 100.155793,110.334629 C105.662248,110.416958 112.130191,114.387196 117.862711,110.978119 C118.347949,106.932176 120.077968,104.062495 120.586852,100.038317 C121.917709,99.5798305 122.710358,98.612703 124.332546,98.4295923 C119.787109,94.465505 113.258629,92.3765285 107.987699,89.0985151 C107.385645,90.7819983 107.88176,93.5031091 105.263558,93.2816728 C103.58509,91.7571695 103.131066,89.0753305 100.496311,88.4550252 C98.1136334,90.1976527 99.8006146,94.0434513 100.836829,96.1773775 C102.459017,95.9862232 103.645153,93.6937903 105.263558,94.5681795 C103.269638,96.5294044 105.50192,102.511968 104.242005,106.794961 M90.6212993,145.406723 C97.2287605,137.654089 98.1240381,125.00478 108.328217,120.952686 C105.620156,125.365324 101.970469,128.888431 99.8152758,133.823431 C104.81521,130.825052 107.042763,125.208237 112.754946,122.883156 C112.456048,123.916052 113.637928,123.550304 113.776499,124.170609 C111.944325,125.978532 109.435372,127.147223 108.328217,129.640273 C116.679885,131.079136 121.913925,135.464331 126.375652,140.580076 C133.316064,116.263727 103.225655,109.240696 92.6644052,125.779334 C93.1108616,127.874935 95.2031534,129.960599 95.3885464,131.248998 C90.1563981,135.743492 80.7283158,136.273424 79.7247346,144.763233 C82.8560781,145.609233 88.3653699,145.609233 90.6212993,145.406723 M88.9187111,125.135371 C80.7623675,120.523535 74.4977887,105.663176 81.0868052,95.8551594 C69.8256028,101.245807 76.1081534,127.383327 88.9187111,125.135371 M58.6126405,139.936586 C64.6445322,141.530643 70.1235558,143.646116 76.6600758,144.763233 C78.6837911,138.416814 81.9546522,133.249022 85.5135346,128.353294 C74.2939511,125.140102 68.3585393,105.745505 75.6385228,95.8551594 C70.0961252,96.6245084 64.686624,97.5192433 58.9531581,98.1078473 C57.4558264,103.771978 55.4723111,108.976203 54.1859111,114.839059 C57.0760546,114.360227 57.764184,114.871706 58.9531581,116.447784 C60.0040334,114.995673 63.3273911,115.302277 63.7199322,117.091273 C55.5843981,123.87678 51.2078005,129.426881 58.6126405,139.936586 M55.2069911,102.612277 C61.0369369,79.0023473 68.1026781,58.075203 74.6169699,35.3647399 C76.6600758,28.2418742 86.3076028,4.70622987 79.0436993,1.58009899 C70.2389534,-2.2093943 69.4860311,11.9454916 68.1471346,17.9895654 C60.7560099,51.3455285 55.7012146,84.5623842 49.418664,115.161277 C52.8947816,116.385327 54.2686758,106.414072 55.2069911,102.612277 M42.2677934,128.353294 C47.9303181,127.697502 53.5119699,126.965532 54.1859111,121.596176 C53.1657769,120.843861 50.2080028,121.922653 50.4402169,119.987451 C51.9488993,119.37519 54.2568522,119.518082 55.8884993,119.022216 C56.4092075,117.998784 56.0081534,117.606539 55.8884993,116.447784 C47.7666805,116.872676 42.2488758,121.289099 42.2677934,128.353294 M48.7376287,146.371958 C36.3725816,141.421817 43.2221887,156.056955 48.7376287,146.371958 M91.3023346,195.600831 C92.3305087,196.03424 94.0198546,196.03424 95.0480287,195.600831 C95.528064,192.941703 97.9816828,190.440136 97.7716969,188.200696 C82.9918122,195.340596 101.461111,182.783079 105.944593,179.191364 C105.748323,177.471921 104.885205,174.941018 105.603603,173.399955 C100.904459,171.405136 95.6136664,169.969112 91.9833699,166.964582 C94.9978969,166.570445 97.144104,167.338847 99.8152758,168.572834 C100.263624,167.575898 98.8060193,166.788096 99.8152758,166.321092 C103.662652,166.546314 103.309838,170.740827 106.284638,171.79123 C108.842304,169.420727 108.351391,161.332153 107.306664,157.633032 C102.801899,158.811659 106.96189,164.919609 105.263558,167.608072 C104.037222,167.050223 103.860815,165.501116 103.56097,164.068404 C95.8543934,166.965529 88.4348922,164.553861 79.0436993,163.103169 C78.7145322,170.194807 81.9811369,179.162975 81.0868052,185.626737 C77.413944,178.6567 77.5615016,169.000565 74.9574875,160.52921 C65.7549981,154.137367 55.4723111,147.706253 40.5652052,151.841622 C38.4487934,165.258861 40.0917911,181.463924 48.3971111,187.878478 C45.8943064,188.205901 46.2097581,185.869938 44.3108993,185.626737 C41.9561252,215.668253 78.209904,194.98573 93.0049228,193.026871 C92.0774852,194.26275 92.4345558,194.013871 91.3023346,195.600831 M51.1212522,148.624173 C69.5782546,148.808703 76.875264,167.045492 97.4316522,163.747133 C107.266937,162.16869 111.207956,147.137049 118.884264,142.1888 C113.868723,133.407055 92.601504,134.791505 93.6859581,145.406723 C94.0624193,149.091649 101.717918,148.018535 100.836829,152.485112 C99.0391793,151.71671 95.4452993,149.697287 94.7075111,150.876388 C83.0646452,144.218633 65.9422828,149.372703 55.8884993,140.580076 C55.1956405,131.705592 48.0182852,125.399864 40.5652052,132.857723 C42.4546052,133.454371 45.8380264,130.984505 47.7160758,131.570743 C47.3206969,134.844025 41.5735158,133.05976 40.9057228,136.075646 C42.8301205,137.23724 45.4279864,134.569596 47.3755581,135.753901 C45.5987181,137.935616 42.5610169,138.926874 39.5436522,139.936586 C39.7895816,140.9198 39.1955675,141.109062 39.2031346,141.867529 C44.3813675,140.101243 52.0496358,141.701924 51.1212522,148.624173 M47.0350405,116.126512 C48.1492899,111.06518 50.1597628,105.137502 49.7591816,99.7165721 C44.9555181,103.2217 39.3095464,105.930508 34.0953699,109.047649 C35.3136664,115.304169 35.2011064,121.964763 37.1600287,128.031549 C40.3410311,124.173448 39.3478546,116.370186 43.2893464,113.230807 C44.3572475,117.246468 41.4250122,118.401911 47.0350405,116.126512 M33.4143346,128.353294 C32.0934099,123.058696 31.907544,116.691931 30.3496758,111.621609 C26.5264193,114.128854 29.5622287,125.454277 33.4143346,128.353294 M28.6470875,127.387586 C28.1457699,125.608998 28.0511816,123.44621 26.9444993,122.239666 C25.4816922,123.968099 23.1675911,124.891696 21.8367346,126.744096 C23.8448428,127.206367 26.1248922,127.411716 28.6470875,127.387586 M38.8626169,130.927253 C39.6533746,130.709602 39.7739746,129.857924 40.5652052,129.640273 C25.7734969,129.298656 3.05245694,126.261005 0.384122824,145.406723 C12.9005111,153.684086 27.6799228,143.507482 37.841064,138.971351 C37.8041746,135.427898 39.5914193,134.470706 38.8626169,130.927253 M151.573958,257.057431 C139.086892,236.566062 121.36484,215.896787 113.435982,194.313851 C111.331866,190.724975 107.273085,188.98282 106.284638,184.339757 C103.878313,187.07932 102.205048,191.957542 101.517864,195.279559 C103.390238,195.913586 108.386862,195.395008 109.34977,197.853518 C106.505975,198.209804 103.423817,196.48279 102.879935,199.140498 C83.845944,193.599861 68.3027322,207.698441 51.8022875,208.471102 C52.7651958,206.83872 53.2315158,206.653243 54.5259558,205.253653 C52.7789111,204.116663 50.5967605,203.389424 48.3971111,202.679693 C48.1412499,205.494961 50.5102122,205.831374 50.0996993,208.79332 C37.2555628,216.080844 49.6768899,240.289787 51.8022875,252.874273 C47.2819158,261.200844 48.9093064,274.6583 44.9919346,280.54576 C40.3547464,270.002935 47.7316828,263.57182 48.3971111,253.196018 C49.1382099,241.637804 38.4984522,228.842763 40.2246875,217.80218 C40.9080875,213.42976 45.9940969,209.581596 46.3540052,205.253653 C46.7678287,200.275122 40.6370922,193.857257 40.5652052,187.235461 C40.4985205,181.050861 40.3400852,182.12019 38.5220993,176.938676 C35.8797769,169.408424 40.4148099,158.825854 38.5220993,151.841622 C37.5416922,148.224357 34.8941675,145.480535 37.5000734,141.54531 C27.1261087,144.892878 15.3739934,154.61478 1.74619341,148.624173 C-2.55284188,146.734394 1.87577929,134.25069 6.51344047,129.640273 C12.0014499,124.183857 24.3962922,125.918914 26.6039816,117.735237 C27.1549581,115.692629 25.4585181,113.430478 26.6039816,111.299864 C31.1078005,102.9203 45.6379722,102.199213 51.1212522,96.1773775 C57.2354358,65.5429983 63.5260264,29.8539111 69.1686875,2.86707886 C73.5698781,-1.74996141 85.703184,-1.14101174 84.151464,8.65848826 C81.6496052,24.4552198 70.2786805,47.9823473 67.4660993,61.1057567 C66.7921581,72.7713775 59.2870546,83.5943104 59.9747111,95.5338876 C64.7987111,93.5215621 84.3992852,96.4106426 85.8540522,90.7072399 C87.0491746,86.0220654 80.9610028,81.2578742 81.7678405,75.2625352 C82.9795158,66.2626661 108.58597,50.409156 119.224782,60.4617936 C124.22708,65.1886057 124.017568,70.0829144 129.099793,75.2625352 C132.214584,77.5067064 143.506528,79.8024513 142.720499,83.9505956 C141.975617,87.8796695 129.642257,87.7755755 125.694617,90.385495 C126.573342,93.6303876 128.20688,96.1631829 129.099793,99.3948272 C127.586855,100.431982 125.555099,100.978948 123.651511,101.647042 C125.020203,107.205659 119.790419,108.801136 120.246335,113.230807 C120.738193,118.012978 128.518549,121.648696 129.780829,126.100606 C132.107226,134.308888 126.79988,141.680159 127.056688,149.267663 C109.95608,145.864263 111.169175,160.356508 107.987699,172.434247 C105.022358,183.691062 114.137826,188.708864 117.181676,194.957341 C115.212822,198.283143 117.382676,199.114948 119.224782,201.392713 C131.310793,216.337767 147.289584,240.218341 151.573958,257.057431" id="Fill-58" fill="#000000"></path>
                <path d="M97.7718861,238.073343 C98.0797708,240.868739 95.5561567,243.673598 94.7072273,246.439185 C101.373806,253.227057 111.229427,258.709024 117.52191,264.779121 C107.558458,261.906128 102.66399,253.498175 94.3667096,248.04791 C91.0731473,255.017473 89.2258391,263.353507 87.2158391,271.536239 C84.2320532,261.544165 91.9447779,244.922725 97.7718861,238.073343" id="Fill-60" fill="#000000"></path>
                <polygon id="Fill-62" fill="#000000" points="76.5997758 29.2941221 56.5191664 97.4250383 58.9907569 97.4250383 81.6176816 19.2769711"></polygon>
                <polyline id="Fill-64" fill="#000000" points="105.362072 162.923607 109.831839 156.654312 108.29478 156.654312 108.384166 155.059309 102.698467 161.369768 104.865956 162.923607"></polyline>
            </g>
        </g>
    </g>
</svg>