
<svg width="15px" height="18px" viewBox="0 0 15 18" version="1.1" xmlns="http://www.w3.org/2000/svg" xmlns:xlink="http://www.w3.org/1999/xlink">
    <defs></defs>
    <g id="Symbols" stroke="none" stroke-width="1" fill="none" fill-rule="evenodd" opacity="0.5">
        <g id="Header" transform="translate(-639.000000, -25.000000)" fill="#FFFFFF">
            <g id="Group-21">
                <g id="Group-10" transform="translate(120.000000, 11.000000)">
                    <g id="Group-8" transform="translate(472.000000, 13.000000)">
                        <path d="M55.9255734,3.95054358 C55.9255734,4.21440029 55.9600599,4.46542506 56.0250227,4.71003386 L51.8794311,7.65015149 C51.3645404,7.27000535 50.7293482,7.05025842 50.0404213,7.05025842 C48.3594076,7.05025842 47,8.37034397 47,10 C47,11.630458 48.3594076,12.9505436 50.0404213,12.9505436 C50.7293482,12.9505436 51.3645404,12.7299947 51.8794311,12.3506505 L56.0250227,15.2899661 C55.9600599,15.5353769 55.9255734,15.7855997 55.9255734,16.0494564 C55.9255734,17.6799145 57.284981,19 58.9595787,19 C60.6397904,19 62,17.6799145 62,16.0494564 C62,14.4198004 60.6397904,13.0949029 58.9595787,13.0949029 C58.3949634,13.0949029 57.8704486,13.2448761 57.4149067,13.5095348 L53.0447522,10.405008 C53.0656044,10.2750847 53.0744266,10.1403493 53.0744266,10 C53.0744266,9.86045268 53.0656044,9.72571734 53.0447522,9.59499198 L57.4149067,6.49046516 C57.8704486,6.75512386 58.3949634,6.90589913 58.9595787,6.90589913 C60.6397904,6.90589913 62,5.58019961 62,3.95054358 C62,2.32088754 60.6397904,1 58.9595787,1 C57.284981,1 55.9255734,2.32088754 55.9255734,3.95054358" id="Fill-1"></path>
                    </g>
                </g>
            </g>
        </g>
    </g>
</svg>