
<svg width="303px" height="115px" viewBox="0 0 303 115" version="1.1" xmlns="http://www.w3.org/2000/svg" xmlns:xlink="http://www.w3.org/1999/xlink">
    <!-- Generator: Sketch 43.1 (39012) - http://www.bohemiancoding.com/sketch -->
    <desc>Created with Sketch.</desc>
    <defs></defs>
    <g id="Desktop-Design" stroke="none" stroke-width="1" fill="none" fill-rule="evenodd">
        <g id="1.01-desktop-homepage-B-Copy-5" transform="translate(-656.000000, -205.000000)" fill="#2D2D2D">
            <g id="Group-3" transform="translate(259.000000, 116.000000)">
                <g id="Group-2" transform="translate(66.000000, 89.000000)">
                    <g id="Group-14" transform="translate(331.000000, 0.000000)">
                        <path d="M40.729842,114.531422 L24.6801161,114.531422 C22.909103,114.531422 21.6177586,114.124708 20.8060443,113.311267 C19.99433,112.497827 19.5884789,111.203736 19.5884789,109.428957 L19.5884789,104.548338 L5.53113273,104.548338 C3.76011963,104.548338 2.46877529,104.141624 1.65706095,103.328183 C0.845346617,102.514743 0.439495537,101.220652 0.439495537,99.4458726 L0.439495537,86.4678632 C0.439495537,85.5065244 0.568629972,84.6930961 0.826902715,84.0275538 C1.08517546,83.3620115 1.47257876,82.8074013 1.98912425,82.3637064 L13.0579007,73.0461613 C9.14691349,71.862975 6.06613484,69.8478911 3.81547237,67.0008492 C1.56480989,64.1538073 0.439495537,60.0681785 0.439495537,54.7438404 L0.439495537,43.0969089 C0.439495537,39.7691975 0.992928828,36.8112763 2.09981201,34.2230563 C3.2066952,31.6348364 4.79320396,29.4533695 6.85938591,27.6785901 L19.5884789,16.9190439 C19.6622711,16.0316542 19.8467489,15.3106609 20.1419177,14.7560423 C20.4370866,14.2014238 20.7691465,13.7762226 21.1381076,13.480426 L35.4168293,1.38980191 C35.7857903,1.09400534 36.2838803,0.85367424 36.9111141,0.668801387 C37.5383479,0.483928535 38.2209156,0.391493495 38.9588377,0.391493495 L55.0085637,0.391493495 C56.7795768,0.391493495 58.0709211,0.79820767 58.8826354,1.61164822 C59.6943498,2.42508877 60.1002009,3.71917933 60.1002009,5.49395871 L60.1002009,10.3745776 L69.7300364,10.3745776 C71.5010495,10.3745776 72.7923939,10.7812918 73.6041082,11.5947323 C74.4158225,12.4081729 74.8216736,13.7022634 74.8216736,15.4770428 L74.8216736,28.6768985 C74.8216736,29.6382373 74.6925392,30.4516657 74.4342664,31.117208 C74.1759937,31.7827502 73.7885904,32.3373605 73.2720449,32.7810553 L63.310146,41.1002921 C67.9590554,42.13558 71.703954,44.0767159 74.5449542,46.9237578 C77.3859544,49.7707997 78.8064331,54.1891946 78.8064331,60.1790751 L78.8064331,71.8260065 C78.8064331,75.1537179 78.2529999,78.1116391 77.1461167,80.6998591 C76.0392335,83.288079 74.4158292,85.4695459 72.275855,87.2443253 L60.1002009,97.4492558 C60.1002009,98.4105946 59.9710664,99.2055359 59.7127937,99.8341036 C59.4545209,100.462671 59.0671176,100.998795 58.5505721,101.442489 L44.1611627,113.42219 C43.8659939,113.717987 43.4047994,113.976805 42.7775656,114.198652 C42.1503318,114.4205 41.4677641,114.531422 40.729842,114.531422 Z M55.0085637,101.331566 C56.4106157,101.331566 57.4252434,101.017287 58.0524772,100.388719 C58.679711,99.7601517 58.9933232,98.7433663 58.9933232,97.3383326 L58.9933232,91.1266358 C64.822908,90.5350427 69.3979565,88.5754199 72.7186061,85.2477085 C76.0392556,81.9199972 77.6995555,77.4461412 77.6995555,71.8260065 L77.6995555,60.1790751 C77.6995555,53.9673472 76.1130467,49.5304653 72.9399816,46.8682962 C69.7669165,44.2061272 65.597719,42.5053224 60.4322642,41.765831 L43.9397872,39.5473679 C42.9804884,39.4734187 42.2425774,39.1036786 41.7260319,38.4381363 C41.2094864,37.772594 40.9512175,36.9591657 40.9512175,35.9978269 C40.9512175,35.036488 41.2094864,34.2415467 41.7260319,33.612979 C42.2425774,32.9844113 42.9804884,32.6701321 43.9397872,32.6701321 L69.7300364,32.6701321 C71.1320884,32.6701321 72.1467161,32.355853 72.7739499,31.7272853 C73.4011838,31.0987176 73.714796,30.0819322 73.714796,28.6768985 L73.714796,15.4770428 C73.714796,14.0720092 73.4011838,13.0552237 72.7739499,12.426656 C72.1467161,11.7980883 71.1320884,11.4838092 69.7300364,11.4838092 L58.9933232,11.4838092 L58.9933232,5.49395871 C58.9933232,4.08892503 58.679711,3.0721396 58.0524772,2.4435719 C57.4252434,1.8150042 56.4106157,1.50072506 55.0085637,1.50072506 L38.9588377,1.50072506 C37.5567857,1.50072506 36.542158,1.8150042 35.9149242,2.4435719 C35.2876904,3.0721396 34.9740782,4.08892503 34.9740782,5.49395871 L34.9740782,11.7056555 C28.996909,12.2232995 24.3111738,14.1274613 20.9167321,17.4181981 C17.5222903,20.7089349 15.8250949,25.2382518 15.8250949,31.0062848 L15.8250949,42.6532163 C15.8250949,48.8649441 17.3931559,53.301826 20.5293249,55.9639951 C23.6654939,58.6261642 27.8162436,60.3269689 32.9816984,61.0664603 L49.5848632,63.3958466 C50.5441619,63.4697957 51.2636252,63.8025619 51.7432746,64.394155 C52.222924,64.9857481 52.4627451,65.9100985 52.4627451,67.1672339 C52.4627451,68.0546236 52.222924,68.812591 51.7432746,69.4411587 C51.2636252,70.0697264 50.5441619,70.3840055 49.5848632,70.3840055 L19.8098544,70.3840055 C18.4078024,70.3840055 17.3931747,70.6982846 16.7659409,71.3268523 C16.1387071,71.95542 15.8250949,72.9722055 15.8250949,74.3772391 L15.8250949,87.3552485 C15.8250949,88.7602822 16.1387071,89.7770676 16.7659409,90.4056353 C17.3931747,91.034203 18.4078024,91.3484821 19.8098544,91.3484821 L34.9740782,91.3484821 L34.9740782,97.3383326 C34.9740782,98.7433663 35.2876904,99.7601517 35.9149242,100.388719 C36.542158,101.017287 37.5567857,101.331566 38.9588377,101.331566 L55.0085637,101.331566 Z M88.9897075,104.548338 C87.2186944,104.548338 85.9273501,104.141624 85.1156357,103.328183 C84.3039214,102.514743 83.8980703,101.220652 83.8980703,99.4458726 L83.8980703,86.4678632 C83.8980703,85.5065244 84.0272048,84.6930961 84.2854775,84.0275538 C84.5437502,83.3620115 84.9311536,82.8074013 85.447699,82.3637064 L95.1882224,74.1553928 L90.0965852,74.1553928 C88.3255721,74.1553928 87.0342277,73.7486786 86.2225134,72.9352381 C85.4107991,72.1217975 85.004948,70.827707 85.004948,69.0529276 L85.004948,27.5676669 C85.004948,26.6063281 85.1340824,25.7928997 85.3923552,25.1273575 C85.6506279,24.4618152 86.0380312,23.907205 86.5545767,23.4635101 L100.833298,11.372886 C101.202259,11.0770895 101.700349,10.8367584 102.327583,10.6518855 C102.954817,10.4670127 103.637385,10.3745776 104.375307,10.3745776 L152.081734,10.3745776 C153.852747,10.3745776 155.144091,10.7812918 155.955805,11.5947323 C156.76752,12.4081729 157.173371,13.7022634 157.173371,15.4770428 L157.173371,28.6768985 C157.173371,29.6382373 157.044236,30.4516657 156.785964,31.117208 C156.527691,31.7827502 156.140288,32.3373605 155.623742,32.7810553 L147.654223,39.5473679 C151.860379,40.5087067 155.162531,42.5053036 157.560778,45.5372183 C159.959025,48.5691331 161.15813,52.5623268 161.15813,57.5169193 L161.15813,72.9352381 C161.15813,75.8932037 160.623145,78.6107939 159.553158,81.0880901 C158.483171,83.5653863 156.91511,85.6544182 154.848928,87.3552485 L140.459518,99.4458726 C138.540921,101.072754 136.198053,102.32987 133.430845,103.21726 C130.663637,104.10465 127.582859,104.548338 124.188417,104.548338 L88.9897075,104.548338 Z M138.467138,91.3484821 C145.108438,91.3484821 150.366054,89.6846514 154.240145,86.3569401 C158.114236,83.0292287 160.051253,78.5553728 160.051253,72.9352381 L160.051253,57.5169193 C160.051253,51.6749371 158.317162,47.2750293 154.848928,44.3170636 C151.380694,41.359098 146.658063,39.8801373 140.680894,39.8801373 L125.51667,39.8801373 L125.51667,32.6701321 L152.081734,32.6701321 C153.483786,32.6701321 154.498413,32.355853 155.125647,31.7272853 C155.752881,31.0987176 156.066493,30.0819322 156.066493,28.6768985 L156.066493,15.4770428 C156.066493,14.0720092 155.752881,13.0552237 155.125647,12.426656 C154.498413,11.7980883 153.483786,11.4838092 152.081734,11.4838092 L104.375307,11.4838092 C102.973255,11.4838092 101.958627,11.7980883 101.331393,12.426656 C100.70416,13.0552237 100.390547,14.0720092 100.390547,15.4770428 L100.390547,56.9623035 C100.390547,58.3673372 100.70416,59.3841226 101.331393,60.0126903 C101.958627,60.641258 102.973255,60.9555372 104.375307,60.9555372 L131.825873,60.9555372 C132.711379,60.9555372 133.430842,61.1588942 133.984284,61.5656145 C134.537726,61.9723348 134.814442,62.6193801 134.814442,63.5067698 L134.814442,67.8327729 C134.814442,68.7201626 134.537726,69.3672078 133.984284,69.7739281 C133.430842,70.1806484 132.711379,70.3840055 131.825873,70.3840055 L103.268429,70.3840055 C101.866377,70.3840055 100.851749,70.6982846 100.224516,71.3268523 C99.5972819,71.95542 99.2836697,72.9722055 99.2836697,74.3772391 L99.2836697,87.3552485 C99.2836697,88.7602822 99.5972819,89.7770676 100.224516,90.4056353 C100.851749,91.034203 101.866377,91.3484821 103.268429,91.3484821 L138.467138,91.3484821 Z M194.032396,104.548338 L171.673468,104.548338 C169.902455,104.548338 168.611111,104.141624 167.799396,103.328183 C166.987682,102.514743 166.581831,101.220652 166.581831,99.4458726 L166.581831,76.9284717 C166.581831,75.9671329 166.710965,75.1352176 166.969238,74.4327007 C167.227511,73.7301839 167.578018,73.1940606 168.020772,72.8243149 L182.410181,60.7336908 C182.779142,60.4378943 183.258784,60.1975632 183.849122,60.0126903 C184.43946,59.8278175 185.140475,59.7353824 185.95219,59.7353824 L208.311118,59.7353824 C210.082131,59.7353824 211.373476,60.1236096 212.18519,60.9000756 C212.996904,61.6765416 213.402755,62.9891191 213.402755,64.8378476 L213.402755,87.3552485 C213.402755,88.3165873 213.273621,89.1300157 213.015348,89.7955579 C212.757075,90.4611002 212.369672,91.0157104 211.853127,91.4594053 L197.463717,103.439106 C197.168548,103.734903 196.707354,103.993721 196.08012,104.215568 C195.452886,104.437416 194.770319,104.548338 194.032396,104.548338 Z M208.311118,91.3484821 C209.71317,91.3484821 210.727798,91.034203 211.355032,90.4056353 C211.982266,89.7770676 212.295878,88.7602822 212.295878,87.3552485 L212.295878,64.8378476 C212.295878,63.432814 211.982266,62.4160285 211.355032,61.7874608 C210.727798,61.1588931 209.71317,60.844614 208.311118,60.844614 L185.95219,60.844614 C184.550138,60.844614 183.53551,61.1588931 182.908276,61.7874608 C182.281042,62.4160285 181.96743,63.432814 181.96743,64.8378476 L181.96743,87.3552485 C181.96743,88.7602822 182.281042,89.7770676 182.908276,90.4056353 C183.53551,91.034203 184.550138,91.3484821 185.95219,91.3484821 L208.311118,91.3484821 Z M254.799979,106.212185 C247.715927,106.212185 241.923325,105.472705 237.422,103.993722 C232.920675,102.514739 229.415598,100.536629 226.906663,98.0593331 C224.397727,95.5820369 222.700532,92.7165507 221.815025,89.4627885 C220.929519,86.2090263 220.486772,82.8443908 220.486772,79.3687812 L220.486772,46.3136804 C220.486772,42.5422743 221.021758,39.1036908 222.091745,35.9978269 C223.161732,32.8919629 224.951166,30.3037818 227.460102,28.2332059 L241.738823,16.1425818 C243.878797,14.2938532 246.701307,12.8703536 250.206437,11.8720402 C253.711567,10.8737268 258.009899,10.3745776 263.101562,10.3745776 L288.559748,10.3745776 C290.404553,10.3745776 291.714345,10.7812918 292.489163,11.5947323 C293.263982,12.4081729 293.651385,13.7022634 293.651385,15.4770428 L293.651385,28.5659753 C293.651385,29.5273142 293.522251,30.3407425 293.263978,31.0062848 C293.005705,31.6718271 292.618302,32.2264373 292.101756,32.6701321 L284.021549,39.4364447 C290.884225,40.3977836 295.606856,42.6162245 298.189583,46.0918341 C300.772311,49.5674438 302.063655,54.1891957 302.063655,59.9572287 L302.063655,70.6058518 C302.063655,74.0814614 301.584013,77.2612268 300.624714,80.1452433 C299.665415,83.0292598 297.931324,85.5065189 295.422389,87.5770948 L281.03298,99.6677189 C278.597837,101.738295 275.258789,103.346665 271.015737,104.492876 C266.772685,105.639088 261.367486,106.212185 254.799979,106.212185 Z M269.078701,93.0123295 C275.424831,93.0123295 280.664,92.4762063 284.796364,91.4039437 C288.928728,90.3316812 292.193984,88.8157465 294.592231,86.8560943 C296.990478,84.896442 298.650778,82.548592 299.57318,79.8124738 C300.495583,77.0763556 300.956777,74.0075123 300.956777,70.6058518 L300.956777,59.9572287 C300.956777,53.3757552 299.112,48.4027501 295.422389,45.0380641 C291.732779,41.6733782 284.907101,39.9910605 274.945153,39.9910605 C271.993464,39.9910605 269.355432,40.1389566 267.030977,40.4347531 C264.706523,40.7305497 262.65882,41.1372639 260.887807,41.6549079 L260.887807,39.2145984 C260.887807,36.4784802 261.367449,34.6852404 262.326747,33.8348253 C263.286046,32.9844102 265.130824,32.559209 267.861136,32.559209 L288.559748,32.559209 C289.9618,32.559209 290.976428,32.2449299 291.603661,31.6163622 C292.230895,30.9877945 292.544507,29.971009 292.544507,28.5659753 L292.544507,15.4770428 C292.544507,14.0720092 292.230895,13.0552237 291.603661,12.426656 C290.976428,11.7980883 289.9618,11.4838092 288.559748,11.4838092 L263.101562,11.4838092 C252.69686,11.4838092 245.55757,13.5913281 241.683479,17.8064291 C237.809388,22.0215302 235.872372,27.4936845 235.872372,34.2230563 L235.872372,70.6058518 C235.872372,74.0075123 236.333566,77.0763556 237.255969,79.8124738 C238.178371,82.548592 239.857119,84.896442 242.292262,86.8560943 C244.727405,88.8157465 248.103348,90.3316812 252.420193,91.4039437 C256.737037,92.4762063 262.289818,93.0123295 269.078701,93.0123295 Z M260.887807,62.286615 C260.887807,61.1773779 261.330553,60.2345405 262.21606,59.4580745 C263.101566,58.6816086 265.130822,58.2933814 268.303887,58.2933814 C271.624536,58.2933814 273.727583,58.6816086 274.613089,59.4580745 C275.498596,60.2345405 275.941343,61.1773779 275.941343,62.286615 L275.941343,68.8310813 C275.941343,70.0142675 275.498596,70.994079 274.613089,71.7705449 C273.727583,72.5470109 271.624536,72.9352381 268.303887,72.9352381 C265.130822,72.9352381 263.101566,72.5470109 262.21606,71.7705449 C261.330553,70.994079 260.887807,70.0142675 260.887807,68.8310813 L260.887807,62.286615 Z" id="$5.6-copy"></path>
                    </g>
                </g>
            </g>
        </g>
    </g>
</svg>