
<svg width="150px" height="150px" viewBox="0 0 150 150" version="1.1" xmlns="http://www.w3.org/2000/svg" xmlns:xlink="http://www.w3.org/1999/xlink">

    <defs></defs>
    <g id="Player's-badge" stroke="none" stroke-width="1" fill="none" fill-rule="evenodd">
        <g id="Cleveland-Indians">
            <rect id="Rectangle-Copy-3" fill="#BB0000" x="0" y="0" width="150" height="150" rx="6"></rect>
            <path d="M148.244055,1.75594477 C149.328975,2.84082676 150,4.33972471 150,5.99598526 L150,144.004015 C150,147.315506 147.316779,150 144.004015,150 L5.99598526,150 C4.34011826,150 2.84102353,149.329096 1.75594477,148.244055 L148.244055,1.75594477 Z" id="Combined-Shape" fill="#072D6E"></path>
            <path d="M141.498062,75.7568175 L136.783288,80.4725592 C136.367326,80.8902253 135.690781,80.8902253 135.273201,80.4725592 L130.602127,75.8005267 C130.184546,75.3844795 130.184546,74.7077956 130.602127,74.2901295 L135.316901,69.5743878 C135.734482,69.1567217 136.411027,69.1567217 136.828607,69.5743878 L141.498062,74.2448014 C141.915643,74.6624675 141.915643,75.3391514 141.498062,75.7568175 L141.498062,75.7568175 Z M83.3686028,132.798999 C83.3686028,133.389883 83.0303303,134.205789 82.6143684,134.623455 L75.7404769,141.497138 C75.3228965,141.914805 74.6463515,141.914805 74.2287711,141.497138 L67.4875989,134.754583 C67.0700185,134.338536 66.7333645,133.521011 66.7333645,132.930127 L66.7382201,128.920208 C66.7398386,128.329324 67.2173046,127.85176 67.8080676,127.85176 L82.3003739,127.85176 C82.8911368,127.85176 83.3686028,128.329324 83.3686028,128.920208 L83.3686028,132.798999 Z M15.4826521,82.7389644 C15.0650717,82.3229171 15.0650717,81.6462333 15.4826521,81.2285672 L20.9079604,75.8005267 C21.3255408,75.3844795 21.3255408,74.7077956 20.9079604,74.2901295 L15.4389518,68.8183798 C15.0213714,68.4007137 15.0213714,67.7240298 15.4389518,67.3063637 L67.2610049,15.4736764 C67.6785853,15.0560103 68.3551303,15.0560103 68.7727107,15.4736764 L74.3048419,21.0069429 C74.7224223,21.4229901 75.3989673,21.4229901 75.8149292,21.0069429 L81.2726081,15.548144 C81.6901885,15.1304779 82.3667335,15.1304779 82.7843139,15.548144 L134.561048,67.3063637 C134.978629,67.7240298 134.978629,68.4007137 134.561048,68.8183798 L129.090421,74.2901295 C128.674459,74.7077956 128.674459,75.3844795 129.090421,75.8005267 L134.517348,81.2285672 C134.934928,81.6462333 134.934928,82.3229171 134.517348,82.7389644 L85.1926847,132.042991 C84.7767228,132.459038 84.4384503,132.319816 84.4384503,131.728932 L84.4384503,127.85176 C84.4384503,127.259257 83.9593658,126.783312 83.3686028,126.783312 L66.7414571,126.783312 C66.1506941,126.783312 65.6716096,127.259257 65.6699911,127.85176 L65.6651355,131.861679 C65.6651355,132.452563 65.326863,132.591785 64.9092826,132.175738 L15.4826521,82.7389644 Z M13.2167119,80.4725592 L8.50193768,75.7568175 C8.08435726,75.3391514 8.08435726,74.6624675 8.50193768,74.2448014 L13.1713931,69.5743878 C13.5889735,69.1567217 14.2655185,69.1567217 14.6830989,69.5743878 L19.3978731,74.2901295 C19.813835,74.7077956 19.813835,75.3844795 19.3978731,75.8005267 L14.7267992,80.4725592 C14.3092188,80.8902253 13.6326738,80.8902253 13.2167119,80.4725592 L13.2167119,80.4725592 Z M69.5285636,13.2056523 L74.2287711,8.50286151 C74.6463515,8.0851954 75.3228965,8.0851954 75.7404769,8.50286151 L80.5167552,13.2801199 C80.9343356,13.697786 80.9343356,14.3744699 80.5167552,14.792136 L75.8149292,19.4949268 C75.3989673,19.9125929 74.7224223,19.9125929 74.3048419,19.4949268 L69.5285636,14.7176684 C69.1109832,14.3000023 69.1109832,13.6233184 69.5285636,13.2056523 L69.5285636,13.2056523 Z M145.686815,74.2448014 L75.7404769,4.31324958 C75.3228965,3.89558347 74.6463515,3.89558347 74.2287711,4.31324958 L4.31318531,74.2448014 C3.8956049,74.6624675 3.8956049,75.3391514 4.31318531,75.7568175 L74.2287711,145.68675 C74.6463515,146.104417 75.3228965,146.104417 75.7404769,145.68675 L145.686815,75.7568175 C146.104395,75.3391514 146.104395,74.6624675 145.686815,74.2448014 L145.686815,74.2448014 Z" id="Fill-1" fill="#FFFFFF" opacity="0.5"></path>
        </g>
    </g>
</svg>